<svg width="20" height="20" fill="none" xmlns="http://www.w3.org/2000/svg"><path d="M19.219 8.375C18.469 3.969 14.625.625 10 .625c-4.625 0-8.469 3.344-9.219 7.75L10 3.75l9.219 4.625ZM.781 11.625c.75 4.406 4.594 7.75 9.219 7.75 4.625 0 8.469-3.344 9.219-7.75L10 16.25.781 11.625Z" fill="#86BE46"/><path d="M10 3.75.781 8.375A9.24 9.24 0 0 0 .625 10c0 .563.063 1.094.156 1.625L10 16.25l9.219-4.625A9.236 9.236 0 0 0 19.375 10c0-.563-.063-1.094-.156-1.625L10 3.75Z" fill="#FFE947"/><path d="M8.125 8.875c-1 0-1.938.219-2.781.594-.032.187-.032.344-.032.531A4.681 4.681 0 0 0 10 14.688c1.75 0 3.281-.97 4.094-2.376-1.156-2.03-3.406-3.437-5.969-3.437Z" fill="#6DA5CF"/><path d="M14.625 10.75c.031-.25.063-.5.063-.75A4.681 4.681 0 0 0 10 5.312c-1.844 0-3.438 1.063-4.219 2.625a8.336 8.336 0 0 1 2.344-.343c2.656 0 5 1.25 6.5 3.156Z" fill="#6DA5CF"/><path d="M8.125 7.594c-.813 0-1.594.125-2.344.343a4.834 4.834 0 0 0-.437 1.532 6.823 6.823 0 0 1 2.781-.594c2.563 0 4.813 1.375 5.969 3.406.281-.469.437-1 .531-1.531a8.253 8.253 0 0 0-6.5-3.156Z" fill="#fff"/><path d="M6.875 10.313a.312.312 0 1 0 0-.625.312.312 0 0 0 0 .624ZM8.125 12.188a.312.312 0 1 0 0-.625.312.312 0 0 0 0 .624ZM10 12.188a.312.312 0 1 0 0-.625.312.312 0 0 0 0 .624ZM10 13.438a.312.312 0 1 0 0-.625.312.312 0 0 0 0 .624ZM12.5 12.188a.312.312 0 1 0 0-.625.312.312 0 0 0 0 .624ZM12.5 13.438a.312.312 0 1 0 0-.625.312.312 0 0 0 0 .624ZM11.25 12.813a.312.312 0 1 0 0-.625.312.312 0 0 0 0 .624ZM6.875 11.563a.312.312 0 1 0 0-.625.312.312 0 0 0 0 .624Z" fill="#fff"/></svg>