<svg width="20" height="20" fill="none" xmlns="http://www.w3.org/2000/svg"><path fill-rule="evenodd" clip-rule="evenodd" d="M0 1.67A1.67 1.67 0 0 1 1.67 0h16.657A1.67 1.67 0 0 1 20 1.67v16.657A1.67 1.67 0 0 1 18.328 20H1.671A1.67 1.67 0 0 1 0 18.328V1.671Zm7.916 5.955h2.708v1.36c.391-.781 1.391-1.485 2.894-1.485 2.881 0 3.564 1.557 3.564 4.415v5.292h-2.916v-4.642c0-1.627-.39-2.545-1.383-2.545-1.377 0-1.95.99-1.95 2.546v4.641H7.916V7.625Zm-5 9.458h2.917V7.5H2.916v9.582ZM6.25 4.375a1.875 1.875 0 1 1-3.75.082 1.875 1.875 0 0 1 3.75-.082Z" fill="#303030"/></svg>