<svg width="20" height="20" fill="none" xmlns="http://www.w3.org/2000/svg"><path d="M10 0C4.477 0 0 4.477 0 10s4.477 10 10 10 10-4.477 10-10S15.523 0 10 0Z" fill="#40B3E0"/><path d="m14.866 5.752-1.786 9.006s-.25.624-.937.325l-4.122-3.16-1.498-.725L4 10.348s-.388-.137-.425-.436c-.038-.3.437-.462.437-.462l10.03-3.935s.824-.362.824.238" fill="#fff"/><path d="M7.704 14.656s-.12-.01-.27-.486a790.65 790.65 0 0 1-.912-2.972l6.058-3.847s.35-.212.337 0c0 0 .063.038-.125.212-.187.175-4.758 4.285-4.758 4.285" fill="#D2E5F1"/><path d="m9.602 13.134-1.63 1.486s-.128.097-.267.036l.312-2.76" fill="#B5CFE4"/></svg>