<svg width="18" height="18" fill="none" xmlns="http://www.w3.org/2000/svg"><path fill-rule="evenodd" clip-rule="evenodd" d="M15.377 2.616A8.94 8.94 0 0 0 9.037 0C4.099 0 .078 4.001.076 8.92c0 1.571.412 3.105 1.196 4.459L0 18l4.751-1.241a9 9 0 0 0 4.283 1.086h.004c4.939 0 8.96-4.001 8.962-8.92a8.833 8.833 0 0 0-2.623-6.309ZM9.037 16.34h-.002a7.46 7.46 0 0 1-3.792-1.035l-.271-.16-2.82.736.752-2.736-.177-.28A7.375 7.375 0 0 1 1.588 8.92c.002-4.088 3.344-7.414 7.453-7.414a7.431 7.431 0 0 1 5.266 2.174 7.37 7.37 0 0 1 2.18 5.245c-.002 4.088-3.344 7.415-7.45 7.415Zm4.087-5.553c-.225-.113-1.325-.651-1.53-.726-.205-.074-.354-.111-.503.111-.15.223-.58.725-.71.874-.131.149-.262.167-.486.056-.223-.112-.945-.347-1.8-1.106-.666-.592-1.116-1.32-1.246-1.544-.131-.224-.014-.344.098-.456.101-.099.224-.26.336-.39.112-.13.149-.223.223-.372.075-.149.038-.279-.018-.39-.056-.112-.505-1.21-.691-1.655-.181-.433-.366-.375-.503-.381a9.677 9.677 0 0 0-.429-.008.828.828 0 0 0-.598.278c-.205.224-.783.762-.783 1.86 0 1.096.802 2.156.914 2.305.112.15 1.58 2.4 3.826 3.366.535.23.952.366 1.277.47.536.17 1.024.145 1.41.088.43-.063 1.325-.538 1.512-1.059.186-.52.186-.967.13-1.06-.056-.094-.206-.15-.429-.261" fill="#fff"/></svg>