<svg width="16" height="17" fill="none" xmlns="http://www.w3.org/2000/svg"><path fill-rule="evenodd" clip-rule="evenodd" d="M13.669 2.819A7.948 7.948 0 0 0 8.034.494C3.643.494.068 4.05.067 8.422c0 1.397.366 2.76 1.063 3.964L0 16.494l4.223-1.104a8 8 0 0 0 3.807.966h.004c4.39 0 7.964-3.557 7.966-7.929a7.852 7.852 0 0 0-2.331-5.608ZM8.034 15.018H8.03a6.632 6.632 0 0 1-3.37-.92l-.242-.143-2.506.655.668-2.432-.157-.249a6.555 6.555 0 0 1-1.012-3.507c.002-3.633 2.972-6.59 6.624-6.59a6.606 6.606 0 0 1 4.681 1.933 6.55 6.55 0 0 1 1.938 4.662c-.002 3.634-2.972 6.59-6.621 6.59Zm3.632-4.937c-.2-.1-1.178-.578-1.36-.644-.182-.066-.315-.1-.448.099a11.84 11.84 0 0 1-.63.776c-.117.133-.233.148-.432.05-.199-.1-.84-.309-1.6-.984a5.972 5.972 0 0 1-1.108-1.372c-.117-.199-.013-.306.087-.405.09-.088.2-.23.299-.347.099-.115.132-.197.198-.33.067-.132.034-.248-.016-.347-.05-.1-.449-1.075-.615-1.471-.16-.385-.324-.333-.447-.339a8.599 8.599 0 0 0-.38-.007.736.736 0 0 0-.532.248c-.183.198-.697.677-.697 1.652 0 .975.714 1.917.813 2.05.1.132 1.404 2.133 3.4 2.991.476.204.847.326 1.136.418.476.151.91.129 1.254.079.382-.057 1.177-.479 1.343-.942.166-.463.166-.86.117-.942-.05-.083-.184-.134-.382-.232Z" fill="gray"/></svg>