<svg width="80" height="80" fill="none" xmlns="http://www.w3.org/2000/svg"><path d="M0 0h80v80H0V0Z" fill="#4ECDC4"/><path d="m21.035 66.854 6.122-3.705c1.181 2.094 2.256 3.866 4.833 3.866 2.47 0 4.028-.967 4.028-4.725V36.728h7.518v25.668c0 7.787-4.565 11.33-11.224 11.33-6.014 0-9.505-3.114-11.277-6.873M47.62 66.048l6.12-3.544c1.612 2.632 3.706 4.565 7.411 4.565 3.116 0 5.102-1.558 5.102-3.706 0-2.577-2.04-3.49-5.478-4.994l-1.879-.806c-5.424-2.308-9.022-5.208-9.022-11.33 0-5.639 4.296-9.935 11.01-9.935 4.778 0 8.215 1.665 10.685 6.014l-5.853 3.76c-1.29-2.31-2.685-3.222-4.833-3.222-2.202 0-3.598 1.396-3.598 3.222 0 2.255 1.396 3.169 4.618 4.565l1.88.805c6.39 2.74 9.988 5.531 9.988 11.814 0 6.767-5.317 10.472-12.459 10.472-6.98 0-11.492-3.33-13.693-7.68" fill="#1C1C1C"/></svg>