<svg width="80" height="80" fill="none" xmlns="http://www.w3.org/2000/svg"><path d="M40 79.855a8.004 8.004 0 0 1-3.478-.807l-11.015-5.796c-1.656-.806-.828-1.1-.331-1.246 2.236-.66 2.65-.808 4.969-1.981.248-.147.58-.074.828.073l8.447 4.475c.332.147.746.147.994 0l33.044-16.946c.331-.147.497-.44.497-.807V23.001c0-.367-.166-.66-.497-.807L40.414 5.321c-.331-.146-.745-.146-.994 0L6.377 22.194c-.332.147-.497.514-.497.807v33.82c0 .293.165.66.497.806l9.027 4.621c4.886 2.201 7.95-.366 7.95-2.934V25.935c0-.44.414-.88.994-.88h4.224c.496 0 .993.367.993.88v33.379c0 5.795-3.56 9.17-9.772 9.17-1.905 0-3.395 0-7.619-1.834l-8.696-4.402C1.325 61.148 0 59.094 0 56.894V23.075c0-2.2 1.325-4.255 3.478-5.355L36.522.773c2.07-1.027 4.886-1.027 6.956 0L76.522 17.72C78.675 18.82 80 20.873 80 23.075v33.819c0 2.2-1.325 4.254-3.478 5.355L43.478 79.195c-1.076.44-2.319.66-3.478.66ZM50.186 56.6c-14.493 0-17.474-5.869-17.474-10.857 0-.44.414-.88.994-.88h4.306c.497 0 .911.293.911.733.663 3.888 2.568 5.796 11.346 5.796 6.957 0 9.938-1.394 9.938-4.695 0-1.908-.828-3.302-11.677-4.256-9.027-.806-14.658-2.567-14.658-8.949 0-5.942 5.63-9.464 15.072-9.464 10.6 0 15.818 3.228 16.48 10.27 0 .22-.082.44-.248.66-.166.148-.414.294-.663.294h-4.306c-.414 0-.828-.293-.911-.66-.994-4.035-3.561-5.355-10.352-5.355-7.619 0-8.53 2.347-8.53 4.108 0 2.128 1.077 2.788 11.346 3.961 10.186 1.174 14.99 2.861 14.99 9.17-.083 6.456-6.046 10.124-16.564 10.124Z" fill="#4ECDC4"/></svg>