<svg width="90" height="90" fill="none" xmlns="http://www.w3.org/2000/svg"><path d="M45 51.958a7.031 7.031 0 1 0 0-14.062 7.031 7.031 0 0 0 0 14.062Z" fill="#4ECDC4"/><path d="M45 61.048a79.831 79.831 0 0 1-24.975-3.375A31.78 31.78 0 0 1 9.74 52.166a9.964 9.964 0 0 1-4.115-7.24c0-4.648 5.107-9.204 13.663-12.186A80.874 80.874 0 0 1 45 28.95a80.646 80.646 0 0 1 25.374 3.723 31.995 31.995 0 0 1 9.951 5.248 9.538 9.538 0 0 1 4.05 7.006c0 4.832-5.71 9.728-14.906 12.771A80.996 80.996 0 0 1 45 61.048Zm0-28.735a78.604 78.604 0 0 0-24.607 3.605c-7.875 2.748-11.404 6.506-11.404 9 0 2.61 3.794 6.714 12.124 9.563A76.529 76.529 0 0 0 45 57.684a77.627 77.627 0 0 0 23.414-3.178C77.062 51.64 81 47.531 81 44.926a6.544 6.544 0 0 0-2.84-4.423 28.671 28.671 0 0 0-8.89-4.652A77.24 77.24 0 0 0 45 32.313Z" fill="#4ECDC4"/><path d="M29.025 79.996a7.423 7.423 0 0 1-3.758-.922c-4.027-2.324-5.422-9.023-3.732-17.925a80.874 80.874 0 0 1 9.563-24.167A80.65 80.65 0 0 1 46.997 16.86a31.992 31.992 0 0 1 9.517-6 9.537 9.537 0 0 1 8.095 0c4.188 2.414 5.574 9.805 3.62 19.292a81.015 81.015 0 0 1-9.327 22.874 79.833 79.833 0 0 1-15.401 19.949 31.78 31.78 0 0 1-9.908 6.156 13.856 13.856 0 0 1-4.568.864Zm4.987-41.344a78.603 78.603 0 0 0-9.17 23.116c-1.554 8.199-.061 13.129 2.11 14.383 2.25 1.303 7.712.068 14.344-5.726a76.524 76.524 0 0 0 14.7-19.097 77.623 77.623 0 0 0 8.947-21.87c1.84-8.93.25-14.397-2.005-15.696a6.545 6.545 0 0 0-5.254.25 28.67 28.67 0 0 0-8.465 5.394A77.244 77.244 0 0 0 34.03 38.67l-.02-.017Z" fill="#4ECDC4"/><path d="M60.967 80.032c-3.811 0-8.652-2.306-13.692-6.64a80.875 80.875 0 0 1-16.163-20.354 80.65 80.65 0 0 1-9.49-23.825 31.997 31.997 0 0 1-.444-11.25 9.537 9.537 0 0 1 4.033-6.994c4.182-2.422 11.278.067 18.52 6.497a81 81 0 0 1 15.16 19.502 79.829 79.829 0 0 1 9.59 23.307c.848 3.83.978 7.783.386 11.66a9.965 9.965 0 0 1-4.202 7.186 7.285 7.285 0 0 1-3.698.912ZM34.023 51.346a78.606 78.606 0 0 0 15.446 19.488c6.325 5.442 11.343 6.612 13.5 5.344 2.25-1.308 3.91-6.646 2.2-15.284a76.533 76.533 0 0 0-9.2-22.25 77.624 77.624 0 0 0-14.47-18.674c-6.818-6.053-12.347-7.406-14.6-6.1a6.544 6.544 0 0 0-2.405 4.674 28.67 28.67 0 0 0 .43 10.026 77.243 77.243 0 0 0 9.102 22.782l-.003-.006Z" fill="#4ECDC4"/></svg>