<svg width="464" height="431" fill="none" xmlns="http://www.w3.org/2000/svg"><path d="M395.351 212.615c-90.215-49.955-236.482-49.955-326.697 0-90.214 49.955-90.204 130.96 0 180.915 90.205 49.955 236.472 49.965 326.687 0 90.214-49.964 90.214-130.989.01-180.915Z" fill="#363A59"/><path d="M336.308 327.619c22.775 0 41.238-10.265 41.238-22.927 0-12.663-18.463-22.927-41.238-22.927-22.774 0-41.237 10.264-41.237 22.927 0 12.662 18.463 22.927 41.237 22.927ZM287.11 344.836c-16.467-1.464-30.478-.456-41.61 1.764-1.47-10.121-10.065-20.028-25.847-27.764-34.766-17.072-91.141-17.072-125.906 0-34.766 17.071-34.766 44.749 0 61.82 34.765 17.072 91.14 17.062 125.906 0a75.705 75.705 0 0 0 10.427-6.146 149.712 149.712 0 0 0 34.725 3.422l1.198.378a103.036 103.036 0 0 0 29.259 4.605c7.68 0 14.092-1.173 17.715-3.548.38-.246.743-.515 1.087-.805 4.751.136 9.914.32 15.35-.727 7.881-1.531 11.746-4.847 11.524-8.841-.553-9.995-30.789-22.122-53.828-24.158Zm-21.852 29.878c-6.764-2.395-10.367-5.662-9.965-9.094.534-4.517 7.459-8.589 15.773-9.258a46.429 46.429 0 0 1 3.492-.135c6.412 0 12.984 1.318 17.111 3.247a18.813 18.813 0 0 0-5.455.882c-2.486.824-3.634 2.744-3.02 5.012.483 1.707 2.013 3.578 4.348 5.371-5.767 2.472-13.638 3.713-22.284 3.975Zm27.055-12.089a23.26 23.26 0 0 1 3.634.291c.039.084.069.171.09.261.494 1.687-1.348 3.801-5.113 5.924-2.586-1.668-4.136-3.345-4.479-4.566-.11-.378-.231-.815.886-1.183a15.873 15.873 0 0 1 4.962-.727h.02Zm-17.996 14.609a52.466 52.466 0 0 0 15.943-4.197l.513-.253a48.463 48.463 0 0 0 17.474 5.332c-7.288 2.501-20.705 2.133-33.93-.882Zm38.358-1.939a49.11 49.11 0 0 1-18.52-4.449c3.583-2.317 5.345-4.741 5.264-7.232a30.07 30.07 0 0 1 9.764 4.537c2.667 1.938 4.116 4.052 4.026 5.729a2.844 2.844 0 0 1-.554 1.454l.02-.039Zm16.105-.61c-4.469.872-8.677.688-12.562.707.127-.42.208-.852.242-1.289.201-2.792-1.671-5.817-5.274-8.463a34.406 34.406 0 0 0-13.226-5.633c-4.419-5.293-17.886-7.581-27.176-6.844-9.985.815-18.057 5.991-18.772 12.06-.272 2.297.363 6.03 5.727 9.442a153.972 153.972 0 0 1-24.297-2.763c8.193-6.786 12.29-14.541 12.3-22.18 10.86-2.211 24.679-3.228 41.076-1.774 24.106 2.132 50.467 14.25 50.849 21.172.061 2.104-3.13 4.489-8.908 5.603l.021-.038Z" fill="#363A59"/><path d="m120.49 18.943-11.535 6.408c.063-.486.097-.975.101-1.464v-3.219c0-5.729-4.177-8.046-9.33-5.186a17.753 17.753 0 0 0-5.577 5.186c-.835-7.203-6.703-9.888-13.83-5.923-7.7 4.285-13.95 14.697-13.95 23.266v4.847a12.273 12.273 0 0 0 1.188 5.575l-9.582 5.322a11.209 11.209 0 0 0-3.657 3.719 10.726 10.726 0 0 0-1.517 4.909c0 3.18 2.315 4.469 5.174 2.908l62.495-34.754a11.215 11.215 0 0 0 3.655-3.72 10.731 10.731 0 0 0 1.518-4.908c.02-3.267-2.305-4.556-5.153-2.966ZM167.343 38.118l-7.357 4.091c.041-.322.061-.645.06-.97v-2.025c0-3.645-2.657-5.129-5.938-3.297a11.282 11.282 0 0 0-3.543 3.277c-.544-4.595-4.278-6.301-8.817-3.77-4.912 2.723-8.898 9.364-8.898 14.831v3.073a7.753 7.753 0 0 0 .755 3.549l-6.11 3.402a7.138 7.138 0 0 0-2.334 2.368 6.815 6.815 0 0 0-.967 3.129c0 2.026 1.479 2.85 3.301 1.832l39.848-22.151a7.154 7.154 0 0 0 2.335-2.373c.573-.957.905-2.03.967-3.134 0-2.026-1.48-2.801-3.302-1.832Z" fill="#EBEBEB"/><path d="M329.867 301.153a117.829 117.829 0 0 1 2.073-33.93c2.678-13.397 10.659-24.235 20.211-29.334 3.312-1.755 10.237-3.636 14.766.3 4.318 3.752 2.013 9.791-3.271 16.005-10.408 12.235-20.664 22.472-23.472 38.525l-1.168 11.905-9.139-3.471Z" fill="#C04CFD"/><path opacity=".2" d="M329.867 301.153a117.829 117.829 0 0 1 2.073-33.93c2.678-13.397 10.659-24.235 20.211-29.334 3.312-1.755 10.237-3.636 14.766.3 4.318 3.752 2.013 9.791-3.271 16.005-10.408 12.235-20.664 22.472-23.472 38.525l-1.168 11.905-9.139-3.471Z" fill="#000"/><path d="M333.087 299.651a.533.533 0 0 1-.37-.148.493.493 0 0 1-.153-.356c0-15.511 3.412-28.938 10.438-41.056 4.63-8.007 10.306-13.824 17.332-17.779a.538.538 0 0 1 .715.184.489.489 0 0 1 .051.378.49.49 0 0 1-.243.301c-6.864 3.878-12.41 9.549-16.96 17.45-6.924 11.972-10.296 25.205-10.296 40.57a.486.486 0 0 1-.164.325.524.524 0 0 1-.35.131Z" fill="#fff"/><path d="M344.381 306.738c0-3.81 2.637-10.868 8.374-17.693 6.341-7.561 15.672-12.854 16.729-17.633 1.278-5.74-4.197-8.531-12.3-5.817-9.733 3.315-19.335 16.219-18.178 39l5.375 2.143Z" fill="#C04CFD"/><path d="M342.046 303.344a.463.463 0 0 0 .312-.416c1.197-20.184 13.316-30.547 19.758-33.291a.494.494 0 0 0 .258-.266.465.465 0 0 0-.281-.616.499.499 0 0 0-.38.01c-7.126 3.034-19.124 13.504-20.342 34.114a.486.486 0 0 0 .133.343.518.518 0 0 0 .34.161.467.467 0 0 0 .202-.039Z" fill="#fff"/><path d="M294.155 378.155a103.048 103.048 0 0 1-29.26-4.615l-1.197-.378c-16.558.456-35.611-2.588-49.521-7.581l1.147-2.966c11.444 4.101 26.925 6.873 41.268 7.319-5.375-3.412-6.04-7.145-5.728-9.432.715-6.079 8.777-11.255 18.772-12.07 9.28-.737 22.747 1.551 27.176 6.854a34.246 34.246 0 0 1 13.226 5.623c3.603 2.666 5.475 5.671 5.274 8.463a6.082 6.082 0 0 1-.242 1.289c3.886 0 8.053.165 12.562-.707 5.777-1.115 9.008-3.5 8.897-5.565-.382-6.922-26.743-19.04-50.849-21.172-32.108-2.85-54.352 3.771-63.723 10.305l-1.932-2.56c9.783-6.853 32.943-13.824 65.957-10.896 23.029 2.036 53.275 14.115 53.829 24.158.221 3.965-3.654 7.31-11.525 8.841-5.445 1.047-10.609.863-15.359.728a9.85 9.85 0 0 1-1.077.804c-3.614 2.385-10.025 3.558-17.695 3.558Zm-20.966-5.671c13.246 3.015 26.663 3.373 33.93.872a48.393 48.393 0 0 1-17.473-5.332l-.514.252a52.744 52.744 0 0 1-15.943 4.208Zm19.839-6.35a49.204 49.204 0 0 0 18.52 4.44c.287-.424.46-.911.503-1.415.121-1.668-1.339-3.762-4.026-5.73a30.312 30.312 0 0 0-9.763-4.537c.11 2.492-1.651 4.954-5.234 7.242Zm-19.597-14.667c-1.178 0-2.346 0-3.493.135-8.314.669-15.249 4.741-15.772 9.258-.403 3.432 3.201 6.699 9.954 9.094 8.666-.262 16.537-1.503 22.355-3.975-2.355-1.794-3.855-3.665-4.338-5.371-.634-2.268.513-4.188 3.02-5.012 1.76-.561 3.6-.859 5.455-.882-4.217-1.929-10.77-3.247-17.181-3.247Zm17.755 6.398a15.8 15.8 0 0 0-4.983.727c-1.117.368-1.006.804-.885 1.183.342 1.221 1.882 2.908 4.479 4.566 3.764-2.123 5.606-4.237 5.113-5.924a1.346 1.346 0 0 0-.091-.261 24.537 24.537 0 0 0-3.633-.291Z" fill="#455A64"/><path d="M303.626 374.248a71.17 71.17 0 0 0 6.824 1.164c.491-.239.965-.508 1.419-.805a9.764 9.764 0 0 0 1.077-.805s-3.221-.155-5.827-.446c-1.14.379-2.308.678-3.493.892ZM287.22 369.11a34.074 34.074 0 0 0 1.912-.834l.514-.252a21.098 21.098 0 0 1-3.171-2.045c-.775.329-1.6.63-2.446.921a13.173 13.173 0 0 0 3.191 2.21ZM294.91 358.417c.15.591.064 1.214-.242 1.745 1.111.136 2.199.403 3.241.795.27-.656.4-1.358.383-2.064a17.113 17.113 0 0 0-3.473-.737c.04.084.07.172.091.261ZM252.636 369.75a24.463 24.463 0 0 0 5.032 3.432c2.013.039 4.026.039 6.039 0a50.67 50.67 0 0 1-7.045-3.228 186.615 186.615 0 0 1-4.026-.204ZM220.045 350.972l1.933 2.559c3.684-2.578 9.391-5.167 16.92-7.183.367-1.133.65-2.289.845-3.461-8.837 2.191-15.5 5.148-19.698 8.085ZM225.248 365.601c-3.522-.892-6.874-1.881-9.924-2.976l-1.147 2.966c2.476.892 5.123 1.706 7.881 2.463a44.939 44.939 0 0 0 3.19-2.453Z" fill="#37474F"/><path d="M161.586 231.393h-.07c-12.501-.456-24.338-9.403-35.782-18.051-9.784-7.396-19.033-14.386-26.935-14.386a1.67 1.67 0 0 1-1.16-.463 1.55 1.55 0 0 1-.48-1.117c0-.419.172-.821.48-1.118a1.674 1.674 0 0 1 1.16-.462c9.059 0 18.722 7.309 28.968 15.055 11.072 8.337 22.435 16.955 33.88 17.372.414.038.798.225 1.075.524.277.299.427.687.42 1.088a1.564 1.564 0 0 1-.461 1.073 1.676 1.676 0 0 1-1.095.485Z" fill="#455A64"/><path d="M80.33 300.882c-8.898-3.18-16.507-14.9-13.196-27.949 4.026-15.724 21.912-26.863 31.746-35.985 18.278-16.955 29.471-30.508 23.643-54.899-5.103-21.327-25.626-28.462-37.825-28.026-15.098.552-24.64 6.621-23.804 11.342.372 2.094 4.489 3.025 7.74 4.178 10.065 3.549 13.206 5.72 16.427 9.898 4.901 6.36 5.727 14.668 4.67 15.24-1.057.572-2.456-4.208-9.15-6.961-6.693-2.753-9.964-.766-9.904.669.06 1.435 6.22 2.792 8.052 11.323 1.55 7.096 1.178 16.238-9.904 30.847-6.824 8.997-22.334 25.836-18.953 47.328 3.383 21.492 20.373 29.345 27.368 29.732l3.09-6.737Z" fill="#C04CFD"/><path opacity=".05" d="M80.33 300.882c-8.898-3.18-16.507-14.9-13.196-27.949 4.026-15.724 21.912-26.863 31.746-35.985 18.278-16.955 29.471-30.508 23.643-54.899-5.103-21.327-25.626-28.462-37.825-28.026-15.098.552-24.64 6.621-23.804 11.342.372 2.094 4.489 3.025 7.74 4.178 10.065 3.549 13.206 5.72 16.427 9.898 4.901 6.36 5.727 14.668 4.67 15.24-1.057.572-2.456-4.208-9.15-6.961-6.693-2.753-9.964-.766-9.904.669.06 1.435 6.22 2.792 8.052 11.323 1.55 7.096 1.178 16.238-9.904 30.847-6.824 8.997-22.334 25.836-18.953 47.328 3.383 21.492 20.373 29.345 27.368 29.732l3.09-6.737Z" fill="#000"/><path opacity=".15" d="m77.24 307.62 3.09-6.728a18.99 18.99 0 0 1-6.804-4.372 45.182 45.182 0 0 0-3.11 9.277 20.91 20.91 0 0 0 6.824 1.823Z" fill="#000"/><path d="M106.227 179.073c1.359-.863.876-2.908.202-4.285a31.55 31.55 0 0 0-7.247-9.84 51.478 51.478 0 0 1 6.542 1.784c3.1.97 5.103 2.24 5.566 1.134a5.416 5.416 0 0 0-.12-2.53c-.544-2.055-1.067-2.801-1.802-3.354-7.074-5.252-15.78-8.055-24.71-7.959-15.098.552-24.64 6.621-23.805 11.342.373 2.094 4.49 3.025 7.74 4.178 10.066 3.549 13.206 5.72 16.427 9.898 0 .059 3.644 1.736 5.284 2.744.714.498 1.537.83 2.406.969.399.04.8-.052 1.137-.261 1.128-.718.886-2.346.473-3.578a48.45 48.45 0 0 0-3.02-7.028 23.773 23.773 0 0 1 10.509 5.283c1.258 1.115 2.979 2.375 4.418 1.503Z" fill="#455A64"/><path d="M155.215 295.23c1.278 16.849 7.046 27.338 18.943 37.071 11.897 9.733 28.877 15.511 36.375 18.691 7.499 3.179 13.085 6.98 18.48 2.559s4.952-13.989 14.564-21.589c9.613-7.601 12.984-9.695 13.236-15.24.322-7.28-6.955-7.096-9.179-6 0 0-1.883-3.103-7.247-1.939-2.762.647-5.15 2.311-6.653 4.634 0 0-3.342-.194-6.875 2.985-3.13 2.812-9.22 10.364-9.22 10.364s6.502-9.84 3.664-20.358c-2.567-9.52-8.888-12.118-8.888-12.118s2.718-1.338 9.985-.088c0 0-3.019-8.123-16.285-11.274s-22.033 5.991-22.033 5.991l-28.867 6.311Z" fill="#C04CFD"/><path opacity=".15" d="M236.069 310.809a10.82 10.82 0 0 0-2.376 2.588c2.013 0 6.231.204 7.71 5.148.041 0 1.711-5.574-5.334-7.736ZM248.892 316.519s2.728-1.484 1.147-6.35a6.834 6.834 0 0 0-2.405.553 6.405 6.405 0 0 1 1.352 2.752 6.279 6.279 0 0 1-.094 3.045Z" fill="#000"/><path d="M240.356 325.912a21.713 21.713 0 0 0-9.101 4.524 20.637 20.637 0 0 0-5.876 8.079c-3.019 6.912-1.942 11.536 1.007 12.244 2.949.708 4.328.31 6.874-3.422 2.114-4.644 4.107-10.402 10.358-15.346l4.871-3.83c-.342-2.035-3.1-3.441-8.133-2.249Z" fill="#F28F8F"/><path d="M238.827 319.32c-2.014-.765-4.027 3.723-1.752 4.576 1.882.708 4.379-3.548 1.752-4.576Z" fill="#FFA8A7"/><path d="M246.537 317.798c-1.963-.766-4.027 3.723-1.752 4.576 1.882.756 4.368-3.548 1.752-4.576ZM252.868 317.643c-1.963-.775-4.026 3.713-1.752 4.566 1.893.708 4.389-3.538 1.752-4.566Z" fill="#F28F8F"/><path d="M134.481 251.955c-1.007 5.38-22.033 10.499-36.466 20.978-14.434 10.48-27.177 24.769-24.912 49.538 2.486 27.144 27.891 37.158 41.268 37.158 13.376 0 59.052-3.412 82.434-35.452 23.381-32.039-8.113-74.229-62.324-72.222Z" fill="#C04CFD"/><path opacity=".15" d="M101.587 314.706s7.278-12.36 27.257-8.948c19.979 3.413 18.188 33.222 18.188 33.222s.221 16.665-12.551 14.92c-12.773-1.745-32.894-39.194-32.894-39.194ZM134.481 251.955a3.622 3.622 0 0 1-.926 1.667c-.856 9.927 2.325 22.724 14.091 26.243 12.793 3.877 27.237 1.628 36.929-1.658a72.072 72.072 0 0 0 9.291-3.936c-11.897-13.756-32.934-23.295-59.385-22.316Z" fill="#000"/><path d="M142.543 322.345h-.352c-44.287-9.161-60.593-36.082-66.43-51.322-7.55-19.815-8.204-41.52-1.631-54.007.195-.379.538-.668.954-.803a1.715 1.715 0 0 1 1.265.081c.394.188.694.519.835.919.14.401.11.84-.085 1.219-6.18 11.749-5.466 32.437 1.791 51.486 5.567 14.619 21.288 40.464 63.995 49.305a1.66 1.66 0 0 1 1.007.611 1.54 1.54 0 0 1-.232 2.125 1.682 1.682 0 0 1-1.117.396v-.01Z" fill="#455A64"/><path d="M240.629 311.74c5.093 28.404-14.092 55.315-42.868 60.104-28.777 4.789-56.235-14.347-61.338-42.752-4.287-23.906 9.16-43.828 30.689-52.349a64.292 64.292 0 0 1 19.859-4.353c26.018-1.541 48.967 13.243 53.658 39.35Z" fill="#455A64"/><path opacity=".15" d="M274.7 319.854a117.899 117.899 0 0 1-38.55 5.865 69.984 69.984 0 0 0 7.69-3.51c5.646-2.908 12.702-6.165 14.242-12.602.302-1.202-1.228-.97-1.822-.495-4.408 3.5-9.713 7.95-15.47 11.343-6.477 3.733-14.198 4.92-21.56 3.315-1.52-.32-3.019-.679-4.569-1.076a50.823 50.823 0 0 0 14.886-5.312c10.719-5.885 16.225-14.144 18.117-25.652.222-1.299-1.157-1.725-2.013-.882-1.65 1.58-1.952 3.258-2.707 5.41-2.426 6.786-5.798 10.722-11.807 14.968a42.329 42.329 0 0 1-14.091 6.378c-2.577.621-5.244.728-7.851 1.115a15.144 15.144 0 0 1-7.971-.736 50.854 50.854 0 0 1-5.728-3.025c11.283-.64 23.885-10.247 31.132-16.752 7.67-6.892 13.216-15.511 11.978-25.748-.212-1.832-2.406-.727-2.668.514-1.006 4.779-1.459 7.92-3.774 12.477a35.776 35.776 0 0 1-9.602 11.429c-8.334 6.951-19.809 14.435-31.132 15.433-1.58-1.124-3.15-2.297-4.64-3.548 8.485-3.053 15.732-9.151 21.66-15.743a40.02 40.02 0 0 0 8.153-13.107c1.138-3.083 3.674-8.172 2.335-11.4-.634-1.513-2.576-.078-2.687.969-.795 7.862-5.476 15.511-10.679 21.531-2.476-6.631-4.198-12.457-3.724-19.786.278-3.465.779-6.91 1.499-10.315.222-1.095.594-2.171 0-3.189-.815-1.464-2.727.814-2.446 1.881-.07-.272-1.006 1.134-1.097 1.231-.855 1.434-.775 3.587-1.006 5.196a54.315 54.315 0 0 0-.856 8.162c-.181 7.213 1.892 13.417 4.781 19.922a66.763 66.763 0 0 1-8.797 6.786c-1.902-1.357-3.231-4.847-4.298-6.718a62.456 62.456 0 0 1-4.549-8.444c-2.788-6.989-2.124-15.249-5.164-21.88-.352-.775-1.831.117-1.862.727-.261 9.094 1.299 18.478 5.436 26.757 1.61 3.238 3.945 8.86 6.965 11.991a11.496 11.496 0 0 1-2.476 1.358 9.649 9.649 0 0 1-2.939.804c-2.396.155-3.735-1.939-5.164-3.461a66.777 66.777 0 0 1-4.68-5.632 55.172 55.172 0 0 1-8.223-15.569c-1.47-4.644-1.128-9.995-3.443-14.377-1.117-2.113-3.814.068-3.2 1.891 1.62 4.847.744 10.15 2.304 15.103a62.892 62.892 0 0 0 9.844 18.352c6.847 8.851 15.733 16.052 25.958 21.036 14.092 6.651 32.139 10.499 48.938 8.919-18.256 3.336-37.122 1.55-54.353-5.148-19.627-7.629-39.254-24.73-44.367-45.136-.211-.776-1.651-.349-1.711.329-1.007 10.092 7.045 20.775 13.92 27.668 7.871 7.852 16.225 15.269 26.784 19.718 11.484 4.847 22.999 8.076 35.63 8.299a155.86 155.86 0 0 0 15.269-.311 72.47 72.47 0 0 1-19.546 3.471c-8.626.106-17.192-1.367-25.566-3.219-13.608-3.015-24.982-8.395-35.279-17.585a78.829 78.829 0 0 1-10.991-12.68c-3.12-4.295-7.71-9.229-8.877-14.416-.262-1.173-2.285.117-2.205.97.323 4.275 2.426 8.337 4.711 11.943 1.278 2.036 2.748 3.926 4.187 5.817a10.887 10.887 0 0 1 2.597 5.971c.08 1.862-.624 3.413-.906 5.197-.282 1.783-.614 3.267-.906 4.905a61.441 61.441 0 0 0-.855 10.266c-.101 11.071 5.385 20.659 11.585 29.597.644.969 2.305-.553 2.013-1.406-3.402-10.305-9.945-18.467-9.331-29.81.312-5.642 2.013-10.848 3.352-16.228.111.116.231.252.342.349 1.953 1.939 4.026 3.878 6.14 5.632 1.711 1.416 3.644 3.015 3.392 5.41a27.747 27.747 0 0 1-1.419 4.721 36.103 36.103 0 0 0-1.007 5.37c-.402 3.112-.533 6.253-.775 9.375-.755 10.159 2.013 23.179 9.643 30.77a1.118 1.118 0 0 0 1.379 0 21.812 21.812 0 0 0 4.368 6.311.954.954 0 0 0 1.166.108.897.897 0 0 0 .371-.48.862.862 0 0 0-.027-.598 53.071 53.071 0 0 1-3.714-23.353c7.297 3.16 17.664 2.646 24.629.562a54.322 54.322 0 0 0 15.098-6.786c5.138-3.233 9.55-7.426 12.974-12.331 8.898-.708 16.306-3.364 24.096-7.843a2.32 2.32 0 0 0 .734-.914c.16-.359.223-.752.182-1.141a39.707 39.707 0 0 0 5.637-2.075c.456-.312.788-.764.944-1.281a2.303 2.303 0 0 0-.089-1.569 55.188 55.188 0 0 0 18.571-7.814c1.046-.62 1.429-3.14-.463-2.539Zm-98.015 27.056c.412-.882.855-1.774 1.328-2.636a47.637 47.637 0 0 1 3.161-5.129c.067-.101.124-.208.171-.32 1.885.647 3.811 1.248 5.777 1.803a142.505 142.505 0 0 0 12.461 2.725c-.352 0-1.59 1.114-1.882 1.318-.665.456-1.349.911-2.013 1.328a29.396 29.396 0 0 1-4.198 2.162 22.85 22.85 0 0 1-8.827 1.939 17.553 17.553 0 0 1-4.428-.795c-1.178-.33-2.104-1.144-1.55-2.395Zm-8.818 14.028a51.024 51.024 0 0 0 0 12.263c-2.737-7.164-4.63-14.405-4.126-22.248a83.25 83.25 0 0 1 3.462-18.982c0 .311 4.107 2.376 4.529 2.608 1.108.592 3.976 1.387 4.419 2.647.08.243.08.503 0 .746a5.192 5.192 0 0 1-.835 1.571c-4.51 6.485-6.593 13.64-7.449 21.395Zm43.794-8.308a47.771 47.771 0 0 1-13.155 6.456c-7.277 2.356-18.057 3.432-25.546 0 .34-2.112.824-4.201 1.45-6.252 3.694 1.706 9.29 1.531 12.622.969 6.039-1.076 14.181-4.343 17.533-9.646 5.388.715 10.829 1 16.266.853a58.117 58.117 0 0 1-9.17 7.62Z" fill="#000"/><g opacity=".15" fill="#000"><path d="M146.821 331.681c-4.459-12.138-10.911-11.275-10.911-11.275s2.647-1.473 9.964-.591c0 0-2.013-5.293-9.36-8.444a47.36 47.36 0 0 0-.091 17.721 52.049 52.049 0 0 0 8.344 20.29c1.993-3.955 4.55-10.906 2.054-17.701ZM162.331 365.514a27.074 27.074 0 0 1 6.764-9.064c9.179-8.076 12.43-10.373 12.37-15.889-.07-7.29-7.327-6.786-9.492-5.536 0 0-2.013-3.005-7.337-1.58-2.723.785-5.017 2.567-6.391 4.964 0 0-3.594-.359-7.328 3.499a75.156 75.156 0 0 0-6.039 7.697c4.508 6.495 10.472 11.931 17.453 15.909Z"/></g><path d="M238.706 290.267c-.181-4.305-2.889-10.092-6.391-14.862-5.838-7.949-14.243-12.874-22.718-15.511l-21.841 13.088c23.291-.757 31.313 11.051 33.467 17.643 1.489 4.557 2.747 8.066 5.505 8.066a2.878 2.878 0 0 0 1.976-.559 2.678 2.678 0 0 0 1.044-1.71c1.902 1.745 4.751.708 4.871-1.531a2.535 2.535 0 0 0 1.553.223 2.48 2.48 0 0 0 1.376-.727 5.282 5.282 0 0 0 1.022-1.945c.2-.709.246-1.449.136-2.175Z" fill="#C04CFD"/><path opacity=".15" d="m209.597 259.855-21.841 13.127c2.748-.101 5.5-.004 8.233.29a62.646 62.646 0 0 0 16.739-12.311 43.322 43.322 0 0 0-3.131-1.106ZM237.559 294.386a.097.097 0 0 0 0-.048 1.775 1.775 0 0 1-1.38-.108 1.708 1.708 0 0 1-.538-.442 1.625 1.625 0 0 1-.307-.613c-.745-1.716-1.006-2.521-1.369-2.909.47 1.498.68 3.061.624 4.625a2.548 2.548 0 0 0 1.575.238 2.486 2.486 0 0 0 1.395-.743ZM232.958 297.111a2.704 2.704 0 0 1-1.553-.666 2.525 2.525 0 0 1-.812-1.438c-.564-1.803-.896-2.366-1.299-2.753.4 1.354.556 2.763.463 4.168.408.4.927.677 1.495.799a3.134 3.134 0 0 0 1.706-.11Z" fill="#000"/><path d="M73.103 322.471c2.194 16.761 8.495 26.94 20.946 36.063 12.45 9.122 29.692 14.037 37.342 16.819 7.649 2.783 13.437 6.302 18.6 1.619 5.164-4.682 4.177-14.221 13.367-22.297 9.189-8.075 12.43-10.372 12.38-15.889-.081-7.29-7.327-6.737-9.502-5.535 0 0-2.013-3.005-7.337-1.58-2.721.789-5.014 2.57-6.392 4.963 0 0-3.593-.358-7.327 3.5-2.919 3.015-8.052 10.664-8.052 10.664s7.67-10.664 3.915-20.872c-4.459-12.137-10.91-11.275-10.91-11.275s2.647-1.473 9.974-.591c0 0-3.392-8.725-16.879-10.431a27.125 27.125 0 0 0-11.689 1.143 26.345 26.345 0 0 0-9.992 5.953l-28.444 7.746Z" fill="#C04CFD"/><path opacity=".15" d="M154.742 333.93a10.352 10.352 0 0 0-2.235 2.704c2.889-.048 6.392.194 8.183 5.206 0 0 2.255-5.652-5.948-7.91ZM167.806 338.981s2.648-1.619.806-6.399a6.901 6.901 0 0 0-2.376.669 6.424 6.424 0 0 1 1.505 2.682c.273.996.295 2.041.065 3.048Z" fill="#000"/><path d="M159.805 348.791a21.617 21.617 0 0 0-8.83 4.967 20.54 20.54 0 0 0-5.433 8.343c-2.637 7.068-1.318 11.634 1.631 12.186 2.949.553 4.338.097 6.683-3.761 1.852-4.75 3.533-10.606 9.502-15.85 1.761-1.552 3.311-2.909 4.65-4.082-.383-1.987-3.241-3.228-8.203-1.803ZM157.419 342.771c-2.013-.669-3.815 3.878-1.5 4.653 1.923.611 4.188-3.761 1.5-4.653ZM165.531 340.376c-2.013-.669-3.814 3.878-1.499 4.663 1.922.611 4.187-3.771 1.499-4.663ZM171.853 339.901c-2.013-.669-3.825 3.878-1.5 4.654 1.923.61 4.177-3.762 1.5-4.654Z" fill="#F28F8F"/><path opacity=".05" d="M144.123 376.972c-11.947-2.482-10.347-8.725-15.691-12.389-5.345-3.665-17.252-2.298-36.346-17.343-19.094-15.046-19.98-47.696-7.78-61.918-7.7 9.123-12.692 20.882-11.203 37.158a42.38 42.38 0 0 0 1.42 7.669c3.019 12.37 9.058 20.755 19.526 28.394 12.461 9.113 29.692 14.067 37.342 16.82 7.649 2.753 13.437 6.301 18.6 1.619.413-.381.79-.796 1.128-1.241a9.13 9.13 0 0 1-3.365 1.314 9.267 9.267 0 0 1-3.631-.083Z" fill="#000"/><path opacity=".15" d="M189.165 296.384c-6.23-8.25-11.132-12.109-18.691-16.18v-4.721a62.258 62.258 0 0 0-3.362 1.221c-10.465 4.009-19.273 11.215-25.072 20.513 23.009-1.667 33.366 9.636 35.932 16.141 1.802 4.566 3.302 8.076 6.12 7.921a2.938 2.938 0 0 0 1.96-.698 2.732 2.732 0 0 0 .949-1.794c2.013 1.667 4.902.456 4.881-1.832.504.212 1.066.26 1.6.136a2.538 2.538 0 0 0 1.36-.824c.447-.615.76-1.311.917-2.047a5.3 5.3 0 0 0-.001-2.229c-.453-4.372-2.97-10.78-6.593-15.607Z" fill="#000"/><path d="M196.714 308.744c-.443-4.382-2.939-10.79-6.583-15.608-6.24-8.25-11.132-12.108-18.701-16.18v-5.739s-27.267 5.381-27.77 22.83c23.744-2.103 32.662 9.501 35.228 16.112 1.802 4.566 3.302 8.076 6.12 7.921a2.938 2.938 0 0 0 1.96-.698 2.732 2.732 0 0 0 .949-1.794c2.013 1.667 4.902.456 4.882-1.832.503.212 1.065.26 1.599.136a2.538 2.538 0 0 0 1.36-.824c1.057-1.232 1.117-2.773.956-4.324Z" fill="#C04CFD"/><path opacity=".15" d="M195.808 313.019v-.048a1.82 1.82 0 0 1-1.417-.033 1.76 1.76 0 0 1-.578-.423 1.668 1.668 0 0 1-.35-.611c-.866-1.706-1.147-2.52-1.58-2.908.577 1.504.89 3.089.926 4.692.506.224 1.075.28 1.618.159a2.526 2.526 0 0 0 1.381-.828ZM191.269 316.063a2.783 2.783 0 0 1-1.627-.594 2.61 2.61 0 0 1-.92-1.422c-.684-1.813-1.067-2.366-1.499-2.734a12.33 12.33 0 0 1 .734 4.226c.442.385.989.638 1.576.731a3.21 3.21 0 0 0 1.736-.207ZM150.736 280.66c8.918 1.987 18.349 1.337 26.28-.379-1.721-1.153-3.553-2.229-5.586-3.325v-5.739s-12.461 2.472-20.694 9.443Z" fill="#000"/><path d="M177.308 213.808c2.747-8.386 14.765-18.963 24.891-15.889 5.697 1.725 3.412 21.977 3.412 21.977s-18.51 1.366-28.303-6.088Z" fill="#C04CFD"/><path opacity=".15" d="M177.308 213.808c2.747-8.386 14.765-18.963 24.891-15.889 5.697 1.725 3.412 21.977 3.412 21.977s-18.51 1.366-28.303-6.088Z" fill="#000"/><path d="M185.914 217.918c9.32 2.744 19.698 1.939 19.698 1.939s2.284-20.251-3.412-21.977c-3.694-.485-12.652 4.934-16.286 20.038Z" fill="#FFA8A7"/><path d="M197.881 210.463c-.866-2.249.805-5.147.805-5.147-3.412 0-7.861 3.373-8.273 8.812 0 0 6.955 8.065 14.091 3.79a8.814 8.814 0 0 1 1.49-3.209c.06-1.396.1-2.966.07-4.585a21.135 21.135 0 0 0-8.183.339Z" fill="#F28F8F"/><path d="M153.705 221.796c-7.579-4.847-23.824-5.923-29.743 2.569-3.331 4.779 11.616 19.233 11.616 19.233s15.309-10.091 18.127-21.802Z" fill="#C04CFD"/><path opacity=".15" d="M153.705 221.796c-7.579-4.847-23.824-5.923-29.743 2.569-3.331 4.779 11.616 19.233 11.616 19.233s15.309-10.091 18.127-21.802Z" fill="#000"/><path d="M149.649 230.181c-5.506 7.756-14.091 13.417-14.091 13.417s-14.947-14.454-11.616-19.233c2.567-2.637 13.075-3.791 25.707 5.816Z" fill="#FFA8A7"/><path d="M131.914 227.758s3.191 1.26 3.976 3.538c0 0-4.63 1.939-6.915 5.041a80.382 80.382 0 0 0 2.547 2.996 9.158 9.158 0 0 1 4.026 1.784c8.344-.97 8.052-10.877 8.052-10.877-2.939-4.053-9.019-4.537-11.686-2.482Z" fill="#F28F8F"/><path d="M185.632 273.757c-9.693 3.287-24.157 5.497-36.929 1.668-15.249-4.576-16.105-24.74-12.381-34.027 3.724-9.287 11.324-18.749 28.767-24.672 17.443-5.924 29.541-3.141 38.469 1.861s21.399 21.221 12.491 33.988c-7.479 10.703-20.724 17.896-30.417 21.182Z" fill="#C04CFD"/><path d="M185.552 271.654c19.315-6.563 18.308-17.45 13.427-21.832-4.882-4.382-12.975-5.332-22.214-2.201-9.24 3.132-14.917 8.784-15.883 15.124-.967 6.34 5.344 15.462 24.67 8.909Z" fill="#F0F0F0"/><path d="M180.268 263.859s.785 3.151 3.22 2.366c2.436-.786 1.007-3.762 1.007-3.762l-3.02-2.113-1.207 3.509Z" fill="#F28F8F"/><path d="m180.146 256.908-4.539-.484a.637.637 0 0 1-.421-.224.593.593 0 0 1 .1-.85c.13-.1.296-.146.462-.128l3.955.426 2.869-2.685a.624.624 0 0 1 .443-.178.624.624 0 0 1 .443.178.6.6 0 0 1 .18.426c0 .16-.065.313-.18.427l-3.312 3.092Z" fill="#455A64"/><path d="M176.865 265.934a5.288 5.288 0 0 1-2.97-.912 4.978 4.978 0 0 1-1.881-2.394.58.58 0 0 1 .028-.462.624.624 0 0 1 .359-.309.656.656 0 0 1 .481.027c.15.07.265.195.32.347a3.797 3.797 0 0 0 1.989 2.133c.93.43 2 .485 2.973.155a3.845 3.845 0 0 0 2.215-1.916 3.62 3.62 0 0 0 .16-2.864l-1.198-3.276a.584.584 0 0 1 .167-.656.622.622 0 0 1 .456-.154.63.63 0 0 1 .555.412l1.198 3.277a4.79 4.79 0 0 1-.212 3.782 4.945 4.945 0 0 1-1.203 1.546 5.198 5.198 0 0 1-1.726.983 5.229 5.229 0 0 1-1.711.281Z" fill="#455A64"/><path d="M185.381 263.026a5.37 5.37 0 0 1-2.215-.485 5.087 5.087 0 0 1-1.607-1.156 4.888 4.888 0 0 1-1.02-1.665l-1.197-3.277a.568.568 0 0 1 .019-.465.604.604 0 0 1 .359-.312.649.649 0 0 1 .678.173.61.61 0 0 1 .121.207l1.198 3.277a3.7 3.7 0 0 0 .783 1.261c.346.366.764.663 1.23.871a4.033 4.033 0 0 0 2.232.328 3.97 3.97 0 0 0 2.046-.92 3.729 3.729 0 0 0 1.172-1.859 3.616 3.616 0 0 0-.095-2.173.582.582 0 0 1 .026-.459.618.618 0 0 1 .356-.307.645.645 0 0 1 .479.022.592.592 0 0 1 .316.347 4.786 4.786 0 0 1-.215 3.781 5.084 5.084 0 0 1-2.925 2.53 5.223 5.223 0 0 1-1.741.281ZM198.888 237.898c.296.81.336 1.687.114 2.519a4.316 4.316 0 0 1-1.358 2.156 4.58 4.58 0 0 1-2.373 1.066 4.665 4.665 0 0 1-2.588-.384 4.46 4.46 0 0 1-1.93-1.704 4.219 4.219 0 0 1-.621-2.45 4.248 4.248 0 0 1 .896-2.369 4.501 4.501 0 0 1 2.113-1.49 4.664 4.664 0 0 1 3.444.182 4.404 4.404 0 0 1 2.303 2.474ZM153.192 253.399a4.351 4.351 0 0 0 1.548 2.025c.713.512 1.567.81 2.455.855a4.63 4.63 0 0 0 2.535-.602 4.393 4.393 0 0 0 1.761-1.856 4.194 4.194 0 0 0 .395-2.486 4.262 4.262 0 0 0-1.106-2.278 4.534 4.534 0 0 0-2.232-1.304 4.659 4.659 0 0 0-2.608.111 4.453 4.453 0 0 0-2.563 2.22 4.195 4.195 0 0 0-.185 3.315ZM140.057 254.136a.957.957 0 0 1-.664-.262c-3.443-3.383-9.25-6.854-17.353-4.13a.97.97 0 0 1-.718-.037.922.922 0 0 1-.48-.515.88.88 0 0 1 .039-.691.929.929 0 0 1 .535-.463c9.059-3.024 15.49.815 19.315 4.566a.875.875 0 0 1 0 1.28.923.923 0 0 1-.674.252ZM137.973 256.385a.899.899 0 0 1-.493-.136c-3.11-1.842-8.767-1.852-11.736-.62a.978.978 0 0 1-.72.015.907.907 0 0 1-.518-.481.934.934 0 0 1 .012-.686.988.988 0 0 1 .481-.506c3.402-1.406 9.773-1.454 13.467.746a.906.906 0 0 1 .418.561.87.87 0 0 1-.116.68.89.89 0 0 1-.338.315.943.943 0 0 1-.457.112ZM123.459 263.995a.968.968 0 0 1-.533-.169.91.91 0 0 1-.34-.431.875.875 0 0 1-.027-.54.904.904 0 0 1 .296-.46c5.566-4.517 12.773-5.351 17.111-4.217.224.075.411.23.521.432a.869.869 0 0 1 .075.658.907.907 0 0 1-.412.53.97.97 0 0 1-.677.116c-3.885-.97-10.357-.233-15.41 3.877a.937.937 0 0 1-.604.204ZM208.349 230.967h-.09a.957.957 0 0 1-.63-.318.885.885 0 0 1-.216-.652c.534-5.235 3.02-12.118 12.078-15.21a.971.971 0 0 1 .713.036.91.91 0 0 1 .478.509.866.866 0 0 1-.032.686.921.921 0 0 1-.524.465c-8.053 2.783-10.358 8.977-10.841 13.689a.882.882 0 0 1-.308.572.951.951 0 0 1-.628.223ZM211.429 231.461a1.216 1.216 0 0 1-.312-.049.937.937 0 0 1-.315-.179.874.874 0 0 1-.249-.974c1.44-3.936 6.432-7.756 10.005-8.725a.964.964 0 0 1 .993.314.894.894 0 0 1 .193.667.875.875 0 0 1-.355.599.935.935 0 0 1-.328.155c-3.12.844-7.528 4.256-8.746 7.571a.913.913 0 0 1-.339.449.964.964 0 0 1-.547.172ZM212.385 235.29a.93.93 0 0 1-.543-.174.882.882 0 0 1-.212-1.26c2.648-3.5 8.787-7.174 16.105-7.029.248 0 .486.095.662.264a.888.888 0 0 1 .274.638.886.886 0 0 1-.274.637.956.956 0 0 1-.662.264c-6.623-.145-12.149 3.161-14.514 6.292a.945.945 0 0 1-.836.368Z" fill="#455A64"/><path d="M192.104 214.254c.805-3.548 4.288-6.961 7.7-6.961 0 0-1.681 2.909-.815 5.148 0 0 8.706-2.201 11.846 1.687 0 0-3.945.698-5.223 5.768-7.137 4.275-13.508-5.642-13.508-5.642ZM142.462 231.034c-2.929-2.288-7.861-2.86-10.528-.804 0 0 3.191 1.26 3.976 3.538 0 0-8.223 3.509-8.163 8.444 0 0 3.563-1.813 7.851 1.376 8.324-.921 6.864-12.554 6.864-12.554ZM173 214.554c-1.188.262-1.278-1.861-.735-4.498.493-2.385 2.486-7.145-1.006-7.087-3.493.058-7.247 3.083-8.717 8.841a12.338 12.338 0 0 1-2.154-4.12c-.553-2.171-3.372-2.365-4.61 1.939-.946 3.287.695 6.573 1.601 7.95.503.765.292 2.035-1.389 2.908 0 0 7.257 2.394 12.148 0 4.892-2.395 4.862-5.933 4.862-5.933Z" fill="#C04CFD"/><path d="M164.394 232.973c.29-.02.573-.097.832-.224a2.16 2.16 0 0 0 .676-.517c.188-.214.329-.462.416-.729.087-.267.117-.549.089-.827-.55-4.532-2.479-8.805-5.546-12.283a63.349 63.349 0 0 0-4.106 1.852c3.14 3.548 4.932 7.173 5.284 10.828.046.528.295 1.021.7 1.38.404.359.934.558 1.484.559l.171-.039ZM177.691 225.751c.099.48.368.912.761 1.223.392.311.884.481 1.392.483.141.014.283.014.423 0 .283-.053.552-.16.793-.313.24-.154.446-.352.607-.582a2.047 2.047 0 0 0 .331-1.587c-.927-4.106-3.018-7.884-6.039-10.915-1.65.261-3.341.601-5.113 1.037 3.734 3.335 6.039 6.893 6.845 10.654ZM163.72 217.23c2.305 2.452 5.989 7.154 6.864 12.864.075.501.335.959.733 1.291.397.331.906.513 1.431.512h.332a2.204 2.204 0 0 0 1.438-.835c.346-.45.491-1.015.404-1.569-.937-5.068-3.262-9.803-6.733-13.717-1.007.29-2.013.61-3.1.969l-1.369.485ZM84.396 353.783h-.161a1.684 1.684 0 0 1-.615-.176c-.19-.098-.36-.23-.497-.391a1.559 1.559 0 0 1-.304-.544 1.521 1.521 0 0 1-.064-.614c.665-6.67 7.469-18.274 23.523-22.908 15.56-4.498 31.856.572 38.62 8.066a1.547 1.547 0 0 1-.098 2.31 1.71 1.71 0 0 1-1.882.192 1.64 1.64 0 0 1-.506-.418c-4.983-5.526-19.617-11.633-35.229-7.115-14.493 4.187-20.613 14.357-21.197 20.173a1.568 1.568 0 0 1-.517 1 1.684 1.684 0 0 1-1.073.425Z" fill="#455A64"/><path d="M100.51 365.901c-.434 0-.851-.164-1.16-.458a1.563 1.563 0 0 1-.49-1.112c0-3.248 2.485-14.319 10.87-21.269 4.436-3.693 9.898-6.054 15.712-6.789a31.019 31.019 0 0 1 17 2.649c.361.214.623.554.731.949a1.54 1.54 0 0 1-.15 1.172 1.639 1.639 0 0 1-.948.749 1.709 1.709 0 0 1-1.224-.088 27.454 27.454 0 0 0-15.068-2.325c-5.151.661-9.987 2.764-13.909 6.048-7.408 6.136-9.743 16.093-9.723 18.836.002.42-.168.824-.473 1.124a1.69 1.69 0 0 1-1.158.476l-.01.038ZM79.434 205.771c-4.861 11.032-.412 34.483 9.562 48.937 10.77 15.608 32.612 35.258 57.11 43.983.358.133.657.382.845.704.188.322.254.697.186 1.061a1.575 1.575 0 0 1-.558.931 1.691 1.691 0 0 1-1.046.377c-.193 0-.383-.033-.564-.097-25.163-8.977-47.649-29.17-58.71-45.205-11.233-16.218-15.561-42.305-8.978-53.667a15.63 15.63 0 0 1 1.64-2.337c.346 1.752.518 3.53.513 5.313Z" fill="#455A64"/><path d="m334.718 32.466 10.085-5.603v280.272l-10.075 5.603-.01-280.272Z" fill="#37474F"/><path d="m319.6 304.323 15.128 8.415-.01-280.272-3.654-2.036-1.228 12.176-1.258-13.552-8.978-4.993v280.262Z" fill="#455A64"/><path opacity=".1" d="M334.708 222.436v-34.551c-.584-13.426-1.258-31.022-1.147-38.709l-3.493-1.939c0 11.72-1.369 33.319-2.114 47.88-1.006 20.639 2.788 47.308 2.949 58.069.161 10.761 0 57.429 0 57.429l1.722.969s-.514-58.689.936-74.277c.503-5.371.875-10.422 1.147-14.871Zm-3.452 7.309c-2.305-.969-1.742-53.134.644-52.349 1.892.688 1.681 53.328-.624 52.349h-.02Z" fill="#000"/><path d="m331.064 30.43-2.486-1.376 1.258 13.552 1.228-12.176Z" fill="#263238"/><path opacity=".05" d="M324.492 26.776c-.211 15.006 2.848 25.069 2.788 45.931 0 0-.342-14.755-2.406-25.69a127.835 127.835 0 0 1-2.294-21.327l1.912 1.085ZM334.708 32.466c0 4.944-.222 16.219-.856 23.16a269.755 269.755 0 0 0-.231 28.986s-1.802-16.374-1.198-26.078c.604-9.704.594-27.018.594-27.018l1.691.95Z" fill="#fff"/><path opacity=".1" d="M319.61 79.803v17.974c1.6-9.472 4.106-19.466 4.549-23.722.665-6.37-.443-18.07-1.57-24.682-1.127-6.611-3.019-17.76-2.687-25.108l-.292-.204v17.867l.151 1.154c1.248 8.84 1.902 21.928 1.439 27.764a61.819 61.819 0 0 1-1.59 8.957Z" fill="#000"/><path opacity=".05" d="M325.518 207.768c-.302 6.592 2.627 31.177 3.191 38.923 1.107 15.132.604 63.013.604 63.013l-2.013-1.135s.242-54.133 0-60.424c-.352-8.686-2.657-32.748-1.782-40.377Z" fill="#fff"/><path opacity=".1" d="M327.28 146.17c0 11.983-.393 34.706-2.013 44.294a165.79 165.79 0 0 0-1.007 42.819 182.922 182.922 0 0 1 .584 31.992s-.614-18.478-2.355-33.601a219.538 219.538 0 0 1 .141-45.234c1.368-14.619 1.761-42.431 1.761-42.431l2.889 2.161Z" fill="#000"/><path opacity=".05" d="M321.996 143.233s-.232 19.03-.584 25.351c-.352 6.321-1.309 18.662-1.309 18.662s-.312-20.261 0-26.766c.312-6.505-.141-18.73-.141-18.73l2.034 1.483ZM321.995 248.252c1.127 10.179 1.278 22.093 1.58 26.591.302 4.498.765 32.117.765 32.117l-2.345-1.279s-.201-28.608-.272-35.035c-.1-8.27.685-16.927.272-22.394Z" fill="#fff"/><path opacity=".1" d="M327.23 31.119c.513 7.9 2.425 15.51 3.019 21.075.594 5.565 1.007 22.694 1.007 22.694l-2.013-1.095s.433-15.676-.574-23.325c-1.006-7.648-1.671-14.289-1.439-19.35Z" fill="#000"/><path d="m344.803 26.863-15.118-8.415-10.085 5.613 15.118 8.405 10.085-5.603Z" fill="#263238"/><path opacity=".15" d="m344.803 186.615-10.075 5.603v13.621l10.075-5.613v-13.611ZM334.728 192.218l-15.128-8.405v13.611l15.128 8.415v-13.621Z" fill="#000"/><path d="m236.854 96.08 186.468 103.652 10.81-5.992L247.684 90.05l-10.83 6.03Z" fill="#263238"/><path d="m228.077 89.042 187.646 104.301V151.58l-16.608-9.229-1.811 12.176-1.087-13.795-168.14-93.453.01 27.008 5.395 5.177-5.405-1.512v11.09Z" fill="#455A64"/><path opacity=".05" d="M415.722 186.441c-9.763-5.448-50.829-27.765-55.56-29.936-13.749-6.34-25.606-11.323-44.005-21.415 0 0 8.536 5.817 26.935 15.007 8.636 4.285 16.547 7.949 20.704 9.937 4.157 1.987 51.926 28.481 51.926 28.481v-2.074Z" fill="#fff"/><path opacity=".1" d="m228.117 56.237 16.014 8.918c14.343 7.998 23.985 13.757 30.196 19.263 6.21 5.506 18.288 12.476 23.703 15.317 0 0-6.361-2.23-18.278-9.336-11.917-7.106-14.092-10.819-31.041-20.251L228.117 58.66v-2.423ZM415.723 181.438l-49.974-27.774c-5.435-3.024-18.228-5.4-25.244-9.306a60.642 60.642 0 0 0 12.32 6.291c7.136 2.637 56.204 29.316 62.888 33.029l.01-2.24Z" fill="#000"/><path opacity=".05" d="m233.481 79.464 47.79 26.621c10.84 6.039 28.857 18.167 44.035 26.087 15.179 7.92 26.371 12.467 26.371 12.467s-14.524-3.985-26.532-10.664c-12.008-6.679-33.869-19.854-47.055-27.202l-50.004-27.852v-.97l5.395 1.513ZM415.722 166.499c-10.065-5.613-43.401-24.119-51.332-28.559-7.932-4.44-20.131-12.603-33.628-20.164a242.01 242.01 0 0 0-33.105-15.375 169.203 169.203 0 0 1-17.855-8.308 154.934 154.934 0 0 0 22.274 11.885c13.397 5.865 29.441 13.94 43.683 23.693 14.242 9.752 69.963 39.572 69.963 39.572v-2.744ZM228.127 50.624s60.321 32.96 75.398 41.327c15.078 8.366 34.836 20.086 34.836 20.086s-31.836-16.335-63.783-34.104l-46.451-25.884v-1.425Z" fill="#fff"/><path opacity=".1" d="M415.723 158.657s-69.682-38.777-89.329-49.693c-19.647-10.916-41.519-21.046-41.519-21.046s16.316 10.392 40.442 23.877c7.146 3.994 90.406 50.294 90.406 50.294v-3.422M228.077 82.48l54 30.052c11.072 6.165 39.788 23.024 46.632 27.202 0 0-28.273-14.309-65.877-35.258l-34.755-19.389v-2.608ZM228.097 73.017l45.484 25.341c10.579 5.894 35.229 21.919 46.109 27.959 10.881 6.039 82.424 43.566 96.032 51.147v-2.908c-8.444-4.712-76.999-47.57-93.375-56.702-16.376-9.132-33.144-13.708-43.351-19.389l-50.899-28.356v2.908Zm70.778 37.294c0-1.463 13.971 4.683 23.573 10.024 8.465 4.721 25.284 15.627 25.284 16.985 0 1.357-16.437-7.135-25.284-12.07-8.847-4.934-23.573-13.455-23.573-14.948v.009Z" fill="#000"/><path opacity=".05" d="M228.127 61.782c6.613 3.684 27.176 14.91 32.954 19.146 5.777 4.237 11.675 11.071 22.747 17.237 0 0-11.424-4.595-17.996-10.596-6.573-6.001-37.765-22.81-37.765-22.81l.06-2.977Z" fill="#fff"/><path opacity=".2" d="m247.764 58.224 148.583 84.263 1.006 3.907 1.52-2.463 14.967 9.006 1.882 40.406V151.58l-16.607-9.229-1.45-.834-1.449-.785-148.452-82.508Z" fill="#fff"/><path d="m426.533 187.323-10.81 6.02V151.58l10.81-6.137v41.88Z" fill="#37474F"/><path d="m399.115 142.351-1.812 12.176-1.087-13.795 1.45.785 1.449.834Z" fill="#263238"/><path d="m396.216 140.732 1.45.785-.363 13.01-1.087-13.795ZM228.086 74.288l1.611 2.879-1.611.785 5.395 1.512-5.395-5.176Z" fill="#37474F"/><path d="m228.086 74.288 1.611 2.879 3.784 2.297-5.395-5.176ZM420.302 187.255l-4.579.155-8.395-3.432 8.395 7.794 4.579-4.517Z" fill="#263238"/><path d="m420.302 187.255-4.579 2.23-8.395-5.507 8.395 3.432 4.579-.155Z" fill="#37474F"/><path d="M228.077 47.279 415.723 151.58l10.81-6.137L239.008 41.201l-10.931 6.078Z" fill="#263238"/><path d="m233.11 47.851 186.468 103.652V109.74L251.62 16.384l-1.812 12.175-1.087-13.795-15.611-8.676v41.763Z" fill="#455A64"/><path opacity=".05" d="M419.577 144.552c-9.763-5.439-50.819-27.755-55.56-29.927-13.749-6.34-25.605-11.323-43.995-21.414 0 0 8.526 5.816 26.925 15.006 8.636 4.285 16.557 7.95 20.704 9.937 4.147 1.987 51.926 28.482 51.926 28.482v-2.084Z" fill="#fff"/><path opacity=".1" d="m233.15 15.045 14.836 8.27c14.353 7.997 23.985 13.746 30.195 19.253 6.211 5.506 18.279 12.486 23.734 15.317 0 0-6.371-2.22-18.288-9.336s-14.092-10.81-31.041-20.252L233.14 17.47l.01-2.424ZM419.578 139.598c-10.257-5.72-44.549-24.75-49.974-27.774-5.425-3.025-18.228-5.4-25.244-9.307a60.7 60.7 0 0 0 12.33 6.292c7.136 2.637 56.214 29.315 62.888 33.028v-2.239Z" fill="#000"/><path opacity=".05" d="m233.12 35.268 52.007 29.025c10.84 6.04 28.857 18.167 44.045 26.087 15.189 7.92 26.361 12.467 26.361 12.467s-14.524-3.985-26.532-10.664c-12.008-6.68-33.869-19.854-47.045-27.202L233.11 37.7l.01-2.433ZM419.577 124.659c-10.065-5.613-43.401-24.119-51.332-28.56-7.931-4.44-20.131-12.602-33.628-20.163a240.804 240.804 0 0 0-33.125-15.376 169.163 169.163 0 0 1-17.855-8.308 154.95 154.95 0 0 0 22.314 11.886c13.397 5.816 29.441 13.94 43.683 23.692 14.243 9.753 69.964 39.573 69.964 39.573l-.021-2.744ZM233.159 9.433C291.427 41.22 291.165 41.026 307.39 50.1c15.098 8.405 34.826 20.096 34.826 20.096s-31.887-16.334-63.773-34.104l-45.294-25.205.01-1.454Z" fill="#fff"/><path opacity=".1" d="M419.578 116.816s-69.682-38.777-89.329-49.693c-19.647-10.916-41.519-21.046-41.519-21.046s16.316 10.383 40.442 23.867c7.146 3.994 90.406 50.294 90.406 50.294v-3.422ZM233.11 41.288l52.822 29.432c11.072 6.165 39.788 23.014 46.632 27.202 0 0-28.273-14.309-65.877-35.258L233.1 43.934l.01-2.646ZM233.119 31.817l44.317 24.72c10.579 5.894 35.229 21.919 46.109 27.959 10.881 6.04 82.424 43.566 96.032 51.147v-2.909c-8.444-4.701-76.989-47.57-93.375-56.692-16.386-9.122-33.134-13.708-43.351-19.388l-49.722-27.707-.01 2.87ZM302.74 68.46c0-1.464 13.971 4.673 23.563 10.024 8.465 4.721 25.284 15.627 25.284 16.984 0 1.358-16.437-7.134-25.284-12.069-8.847-4.934-23.573-13.475-23.563-14.939Z" fill="#000"/><path opacity=".05" d="M233.15 20.59c6.623 3.685 26.049 14.251 31.786 18.497 5.737 4.247 11.676 11.071 22.747 17.237 0 0-11.424-4.595-17.996-10.606-6.573-6.01-36.587-22.141-36.587-22.141l.05-2.986Z" fill="#fff"/><path d="m251.619 16.383-1.449-.804-1.449-.815 1.087 13.795 1.811-12.176Z" fill="#263238"/><path opacity=".2" d="m251.62 16.383 166.086 94.714 1.872 40.405v-41.763L251.62 16.383Z" fill="#fff"/><path d="m419.578 122.924-10.186-2.909 10.186 8.008v-5.099Z" fill="#37474F"/><path d="m430.387 145.443-10.81 6.059v-41.763l10.81-6.175v41.879Z" fill="#37474F"/><path d="m419.578 109.739 10.81-6.175L244.091 0 233.11 6.088l186.468 103.651Z" fill="#263238"/><path d="m419.577 122.924 2.889.989-2.889 4.11v-5.099Z" fill="#37474F"/><path d="m422.466 123.912-2.888 1.61-10.186-5.507 10.186 8.008 2.888-4.111Z" fill="#263238"/><path d="m248.721 14.764 1.449.815-.362 12.98-1.087-13.795Z" fill="#37474F"/><path d="m236.854 96.08 186.468 103.652v41.763l-167.959-93.357-1.811-14.192-1.087 12.574-15.611-8.677V96.08Z" fill="#455A64"/><path opacity=".05" d="M423.281 206.683c-9.763-5.42-50.829-28.696-55.56-31.778-13.749-8.958-25.605-17.159-44.005-27.522 0 0 8.536 3.616 26.935 14.938 8.636 5.323 35.913 21.183 40.059 23.81 4.147 2.627 32.571 18.477 32.571 18.477v2.075Z" fill="#fff"/><path opacity=".1" d="m236.894 128.924 14.836 8.241c14.343 7.959 23.986 12.922 30.196 14.347 6.21 1.425 18.288 7.853 23.703 11.052a134.578 134.578 0 0 0-18.228-11.023c-11.927-6.146-14.091-4.847-31.041-14.26l-19.446-10.8-.02 2.443ZM423.282 211.646c-10.267-5.691-25.163-13.989-30.619-17.004-5.455-3.015-37.583-25.593-44.599-29.49a63.978 63.978 0 0 1 12.33 7.436c7.137 5.283 56.204 33.115 62.888 36.838v2.22Z" fill="#000"/><path opacity=".05" d="m236.863 108.673 52.007 28.87c10.84 6.01 28.857 13.93 44.036 22.888 15.178 8.958 26.37 16.858 26.37 16.858s-14.504-12.176-26.582-18.836c-12.078-6.66-33.859-17.798-47.045-25.118l-48.836-27.144.05 2.482ZM423.281 226.575l-32.017-17.77c-7.972-4.43-39.466-20.454-52.983-27.958a307.512 307.512 0 0 1-33.105-21.444 206.766 206.766 0 0 0-17.775-11.546s8.918 3.878 22.314 12.933c13.397 9.054 29.441 18.797 43.683 24.885 14.243 6.088 69.883 38.166 69.883 38.166v2.734ZM236.904 134.557s59.143 33.513 74.221 41.879c15.077 8.367 34.835 18.652 34.835 18.652s-31.886-19.136-63.783-36.838l-45.293-25.137.02 1.444Z" fill="#fff"/><path opacity=".1" d="m423.281 234.418-89.328-49.577c-19.597-10.896-41.519-25.127-41.519-25.127s16.315 7.755 40.442 21.114c7.186 3.955 90.405 50.207 90.405 50.207v3.412M236.854 102.643l52.822 29.325c11.072 6.147 39.788 21.221 46.632 24.653 0 0-28.273-17.139-65.877-38.002l-33.587-18.642.01 2.666ZM236.874 115.081l49.722 27.6c10.206 5.661 26.975 19.718 43.351 28.811 16.376 9.093 84.93 42.393 93.375 47.076v-2.909c-13.608-7.551-85.202-49.567-96.032-55.577-10.83-6.01-35.53-17.45-46.119-23.324l-44.287-24.595-.01 2.918Zm93.174 49.063c8.847 4.915 25.284 14.696 25.284 16.054 0 1.357-16.819-6.437-25.284-11.129-9.603-5.332-23.563-14.726-23.573-16.19-.01-1.464 14.715 6.418 23.573 11.265Z" fill="#000"/><path opacity=".05" d="M236.894 123.428c6.623 3.674 26.049 14.716 31.786 16.848 5.737 2.133 11.676 1.939 22.747 8.076 0 0-11.424-8.114-17.996-9.423-6.573-1.309-36.587-18.536-36.587-18.536l.05 3.035Z" fill="#fff"/><path d="m255.364 148.138-1.953-4.323-.946 2.705 1.087-12.574 1.812 14.192Z" fill="#263238"/><path opacity=".2" d="m255.363 106.375 166.076 94.714 1.882 40.406v-41.763l-167.958-93.357Z" fill="#fff"/><path d="m423.322 228.31-10.186-8.414 10.186 3.315v5.099ZM434.132 193.74l-10.81 5.992v41.763l10.81-6.001V193.74Z" fill="#37474F"/><path d="m423.322 228.31 7.921-7.581-7.921 2.482v5.099Z" fill="#37474F"/><path d="m431.244 220.729-7.922 4.983-10.186-5.816 10.186 3.315 7.922-2.482Z" fill="#263238"/><path d="m252.465 146.52.946-2.705.141-9.869-1.087 12.574Z" fill="#37474F"/><path d="M324.643 76.701a27.543 27.543 0 0 1 7.488 6.06 36.048 36.048 0 0 1 5.194 7.958 40.892 40.892 0 0 1 3.019 9.161 55.983 55.983 0 0 1 1.198 9.569 263.002 263.002 0 0 1 0 15.268 36.132 36.132 0 0 1-1.198 8.24 12.576 12.576 0 0 1-3.019 5.739 7.695 7.695 0 0 1-5.194 2.191c-2.094.097-4.59-.662-7.488-2.278a27.32 27.32 0 0 1-7.489-6.049 35.893 35.893 0 0 1-5.194-7.969 40.804 40.804 0 0 1-3.019-9.151 56.193 56.193 0 0 1-1.198-9.569 247.587 247.587 0 0 1-.111-7.639c0-2.701.037-5.26.111-7.678a36.22 36.22 0 0 1 1.198-8.25c.48-2.127 1.52-4.1 3.019-5.729a7.647 7.647 0 0 1 5.194-2.19c2.094-.065 4.59.707 7.489 2.316Zm6.21 41.686c.147-4.789.147-9.611 0-14.464a40.797 40.797 0 0 0-.433-4.198 17.492 17.492 0 0 0-1.007-3.703 11.819 11.819 0 0 0-1.862-3.14 9.96 9.96 0 0 0-2.908-2.415 5.173 5.173 0 0 0-2.899-.834 2.429 2.429 0 0 0-1.039.238 2.327 2.327 0 0 0-.823.654 7.459 7.459 0 0 0-1.067 2.695 20.439 20.439 0 0 0-.383 3.781c-.194 4.653-.194 9.471 0 14.454.032 1.396.159 2.789.383 4.169a16.185 16.185 0 0 0 1.006 3.722c.47 1.136 1.108 2.2 1.893 3.161a9.976 9.976 0 0 0 2.898 2.385 5.065 5.065 0 0 0 2.899.843 2.743 2.743 0 0 0 1.065-.338c.326-.184.608-.432.827-.728a6.107 6.107 0 0 0 1.007-2.56c.248-1.234.396-2.485.443-3.742v.02Z" fill="#263238"/><path d="M337.325 138.735a7.65 7.65 0 0 1-5.204 2.201c-2.084.097-4.57-.66-7.479-2.269a27.324 27.324 0 0 1-7.478-6.059 35.838 35.838 0 0 1-2.718-3.587l3.543-1.938a39.488 39.488 0 0 0 2.315 2.976 27.35 27.35 0 0 0 7.479 6.059c2.898 1.609 5.398 2.365 7.498 2.268a9.34 9.34 0 0 0 2.899-.591 9.616 9.616 0 0 1-.855.94ZM331.507 91.437l-3.553 2.006c-.131-.194-.262-.397-.403-.581a10.176 10.176 0 0 0-2.909-2.395 5.169 5.169 0 0 0-2.898-.834c-.361.001-.717.082-1.04.237a2.322 2.322 0 0 0-.822.655c-.302.417-.323.456 0 0 .175-.244.393-.457.644-.63l3.11-2.336c.366-.282.811-.45 1.278-.485a5.049 5.049 0 0 1 2.899.834 9.72 9.72 0 0 1 3.694 3.529Z" fill="#37474F"/><path d="M340.394 99.696a40.646 40.646 0 0 0-3.019-9.151 35.876 35.876 0 0 0-5.194-7.97 27.539 27.539 0 0 0-7.488-6.058c-2.899-1.61-5.395-2.365-7.489-2.268a8.46 8.46 0 0 0-2.728.581 13.365 13.365 0 0 0-2.395 4.944 36.184 36.184 0 0 0-1.188 8.24c-.08 2.424-.121 4.993-.121 7.688 0 2.695 0 5.235.121 7.629a55.99 55.99 0 0 0 1.188 9.569 40.9 40.9 0 0 0 3.019 9.161 35.537 35.537 0 0 0 5.204 7.959 27.181 27.181 0 0 0 7.479 6.059c2.909 1.619 5.395 2.365 7.488 2.268a9.615 9.615 0 0 0 2.909-.581 13.932 13.932 0 0 0 2.285-5.003 36.32 36.32 0 0 0 1.127-8.182c.074-2.307.111-4.808.111-7.503 0-2.705 0-5.303-.111-7.814a56.194 56.194 0 0 0-1.198-9.568Zm-6.401 16.083a23.405 23.405 0 0 1-.372 3.752 5.989 5.989 0 0 1-1.007 2.559 2.928 2.928 0 0 1-.674.63s-2.899 2.239-3.151 2.414c-.362.23-.776.373-1.208.417a5.068 5.068 0 0 1-2.898-.844 9.818 9.818 0 0 1-2.899-2.384 12.628 12.628 0 0 1-1.892-3.161 16.137 16.137 0 0 1-1.007-3.722 30.216 30.216 0 0 1-.382-4.159c-.195-4.99-.195-9.811 0-14.464.021-1.253.156-2.502.402-3.732a6.821 6.821 0 0 1 1.007-2.56 2.79 2.79 0 0 1 .644-.63c.352-.252 2.858-2.2 3.08-2.356.37-.275.813-.446 1.278-.494a5.173 5.173 0 0 1 2.899.843 10.022 10.022 0 0 1 2.868 2.385 12.39 12.39 0 0 1 1.852 3.141 17.145 17.145 0 0 1 1.007 3.713c.217 1.391.361 2.792.433 4.198.174 4.847.181 9.665.02 14.454Z" fill="#C04CFD"/><path d="M287.099 116.923a2.861 2.861 0 0 1-1.107-1.299 4.231 4.231 0 0 1-.463-1.939v-8.773l-18.258-10.13a2.82 2.82 0 0 1-1.108-1.3 4.23 4.23 0 0 1-.463-1.939v-9.122a5.645 5.645 0 0 1 .755-3.286l17.353-22.792a1.73 1.73 0 0 1 .956-.717c.426-.002.842.128 1.188.368l8.766 4.848c.494.318.879.77 1.108 1.299.3.605.458 1.267.463 1.938v33.039l4.982 2.782a2.82 2.82 0 0 1 1.107 1.299c.308.603.466 1.267.463 1.939v9.122c.025.248-.004.498-.084.735a1.799 1.799 0 0 1-.379.642.87.87 0 0 1-1.107.077l-4.982-2.772v8.773c.022.248-.008.497-.087.733a1.86 1.86 0 0 1-.376.644.873.873 0 0 1-1.108.077l-7.619-4.246Zm-1.278-25.583V75.509l-8.485 11.08 8.485 4.75Z" fill="#263238"/><path d="M302.358 113.617a1.79 1.79 0 0 0 .463-1.376v-2.007l-3.412-1.939-3.14 2.588 4.982 2.773a.86.86 0 0 0 .561.179.86.86 0 0 0 .546-.218ZM296.269 117.689v2.007a1.75 1.75 0 0 1-.088.735 1.792 1.792 0 0 1-.385.641.858.858 0 0 1-.539.238.866.866 0 0 1-.569-.16l-7.589-4.227a2.878 2.878 0 0 1-1.107-1.299l-.06-.155 3.14-2.579a2.934 2.934 0 0 0 1.168 1.454l6.029 3.345ZM288.67 102.372l-3.141 2.578-18.258-10.169c-.49-.317-.87-.77-1.087-1.3-.05-.096-.07-.183-.111-.28l3.251-2.307c.219.536.606.994 1.107 1.308l18.239 10.17Z" fill="#37474F"/><path d="m301.251 99.745-4.982-2.773V63.924a4.354 4.354 0 0 0-.463-1.939 2.877 2.877 0 0 0-1.107-1.299l-8.767-4.847a2.535 2.535 0 0 0-.413-.184l-15.943 20.95a5.638 5.638 0 0 0-.755 3.276v9.122c.001.673.162 1.336.473 1.939.218.532.601.985 1.097 1.3l18.278 10.168v8.774a4.23 4.23 0 0 0 .463 1.89c.227.532.612.988 1.108 1.309l6.039 3.344v-6.786l3.14-2.588 3.412 1.939v-7.29a4.272 4.272 0 0 0-.463-1.939 2.813 2.813 0 0 0-1.117-1.319Zm-12.29-10.984-3.14 2.404-8.485-4.711 8.475-11.13 3.14-2.394.01 15.83Z" fill="#C04CFD"/><path d="M367.822 161.808a2.823 2.823 0 0 1-1.107-1.299 4.234 4.234 0 0 1-.463-1.891v-8.783l-18.278-10.159a2.848 2.848 0 0 1-1.108-1.309 4.234 4.234 0 0 1-.463-1.891v-9.122a5.647 5.647 0 0 1 .755-3.277l17.353-22.791c.21-.349.553-.606.956-.717.425-.005.841.121 1.188.358l8.766 4.848c.494.316.876.769 1.098 1.299.307.603.466 1.266.463 1.938v33.029l5.032 2.772c.499.314.886.767 1.107 1.3.306.604.464 1.267.463 1.938v9.123c.024.247-.005.497-.085.734-.08.236-.208.455-.378.642a.864.864 0 0 1-1.107.068l-5.032-2.772v8.724a1.763 1.763 0 0 1-.463 1.377.852.852 0 0 1-1.098.078l-7.599-4.217Zm-1.278-25.574v-15.84l-8.475 11.129 8.475 4.711Z" fill="#263238"/><path d="M383.081 158.511a1.795 1.795 0 0 0 .463-1.376v-2.007l-3.412-1.939-3.151 2.618 5.033 2.772a.865.865 0 0 0 1.067-.068ZM376.981 162.583v2.007a1.746 1.746 0 0 1-.473 1.367.86.86 0 0 1-1.107.077l-7.589-4.217a2.932 2.932 0 0 1-1.107-1.309l-.06-.155 3.14-2.578a.49.49 0 0 0 .06.155c.229.528.614.98 1.107 1.299l6.029 3.354ZM369.393 147.256l-3.141 2.589-18.288-10.179a2.726 2.726 0 0 1-1.087-1.299 1.493 1.493 0 0 1-.111-.272l3.251-2.307c.221.53.603.983 1.097 1.299l18.279 10.169Z" fill="#37474F"/><path d="m382.015 144.629-5.033-2.782v-33.038a4.226 4.226 0 0 0-.463-1.89 2.858 2.858 0 0 0-1.097-1.3l-8.767-4.847a3.732 3.732 0 0 0-.413-.184l-15.943 20.901a5.645 5.645 0 0 0-.755 3.286v9.123c.008.656.17 1.302.473 1.89.218.532.601.985 1.097 1.299l18.279 10.169v8.725a4.219 4.219 0 0 0 .463 1.939c.224.531.61.984 1.107 1.299l6.039 3.345v-6.786l3.151-2.579 3.412 1.939v-7.3a4.226 4.226 0 0 0-.463-1.89 2.94 2.94 0 0 0-1.087-1.319Zm-12.29-10.983-3.181 2.384-8.475-4.711 8.475-11.129 3.141-2.394.04 15.85Z" fill="#C04CFD"/><path d="M271.176 133.985c.095.062.169.15.211.252.059.111.09.234.091.359v1.754a.357.357 0 0 1-.091.272.165.165 0 0 1-.211 0l-5.294-2.908a.629.629 0 0 1-.212-.252.83.83 0 0 1-.08-.369v-10.664a.368.368 0 0 1 .08-.271.164.164 0 0 1 .106-.038c.039 0 .077.013.106.038l5.214 2.908a.621.621 0 0 1 .211.252.924.924 0 0 1 .08.369v1.754a.382.382 0 0 1-.08.262.173.173 0 0 1-.106.035.172.172 0 0 1-.105-.035l-3.443-1.939v1.794l3.191 1.774a.55.55 0 0 1 .211.252c.059.111.09.234.091.358v1.765a.344.344 0 0 1-.091.262.155.155 0 0 1-.211 0l-3.191-1.755v1.861l3.523 1.91ZM276.682 131.086c.1.058.178.147.221.252.05.114.078.236.081.359v1.677a.39.39 0 0 1-.081.262.177.177 0 0 1-.221 0l-1.007-.562c-.684-.379-1.006-.059-1.006.969v4.081a.352.352 0 0 1-.091.262c-.05.058-.121.058-.211 0l-1.399-.776a.494.494 0 0 1-.212-.252.826.826 0 0 1-.09-.368v-7.755a.352.352 0 0 1 .09-.262c.05-.058.121-.058.212 0l1.288.717c.095.062.168.15.211.252a.78.78 0 0 1 .091.359v.388c.171-.151.392-.24.624-.252.307-.005.608.08.865.242l.635.407ZM281.815 133.936c.097.06.172.148.212.252a.792.792 0 0 1 .09.359v1.677a.334.334 0 0 1-.018.14.368.368 0 0 1-.072.122.156.156 0 0 1-.212 0l-1.006-.562c-.685-.378-1.007-.058-1.007.969v4.081a.358.358 0 0 1-.09.262.156.156 0 0 1-.212 0l-1.409-.775a.612.612 0 0 1-.211-.252.821.821 0 0 1-.091-.369v-7.755a.351.351 0 0 1 .091-.262.152.152 0 0 1 .211 0l1.298.717c.095.062.169.15.212.252a.795.795 0 0 1 .09.359v.388a.964.964 0 0 1 .614-.252c.308-.004.609.08.866.242l.644.407ZM288.659 141.42v1.27a4.09 4.09 0 0 1-.251 1.357c-.117.34-.33.642-.614.873-.263.206-.597.31-.936.291a2.59 2.59 0 0 1-1.238-.378 4.9 4.9 0 0 1-1.238-.97 6.383 6.383 0 0 1-.936-1.347 7.18 7.18 0 0 1-.614-1.551 7.204 7.204 0 0 1-.252-1.629v-1.28a4.14 4.14 0 0 1 .232-1.357 2.02 2.02 0 0 1 .624-.872c.269-.204.604-.31.946-.301.44.02.867.15 1.238.378.464.257.882.584 1.238.97.367.416.685.871.946 1.357.261.498.467 1.021.614 1.561.139.533.22 1.079.241 1.628Zm-4.026-1.076c.012.405.115.802.302 1.164.159.315.411.579.725.756a.644.644 0 0 0 .725 0 1.064 1.064 0 0 0 .302-.815c.011-.18.011-.362 0-.543a5.63 5.63 0 0 0 0-.581 2.698 2.698 0 0 0-.302-1.154 1.863 1.863 0 0 0-.725-.756c-.302-.165-.543-.184-.725-.048a1.06 1.06 0 0 0-.302.814 4.62 4.62 0 0 0 0 .552 5.209 5.209 0 0 0-.04.611h.04ZM293.762 140.577a.616.616 0 0 1 .212.252.834.834 0 0 1 .09.369v1.667a.317.317 0 0 1-.09.262.156.156 0 0 1-.106.041.16.16 0 0 1-.106-.041l-1.006-.563c-.685-.387-1.007-.067-1.007.97v4.071a.32.32 0 0 1-.09.262.156.156 0 0 1-.212 0l-1.409-.785a.562.562 0 0 1-.211-.252.803.803 0 0 1-.091-.359v-7.755a.375.375 0 0 1 .017-.145.388.388 0 0 1 .074-.127.167.167 0 0 1 .211 0l1.299.718a.621.621 0 0 1 .211.252.84.84 0 0 1 .091.368v.378c.169-.149.385-.238.614-.252.308 0 .609.088.865.252l.644.417ZM294.205 147.024a.726.726 0 0 1 .141-.369c.081-.087.191-.097.342 0l1.369.756c.08.05.143.121.181.204a.85.85 0 0 1 .071.301v.106l-.876 2.812a.815.815 0 0 1-.151.271c-.07.078-.181.078-.332 0l-.835-.465a.373.373 0 0 1-.171-.204.617.617 0 0 1-.071-.291l.332-3.121ZM303.264 154.643a3.141 3.141 0 0 1-.573-.416 3.74 3.74 0 0 1-.423-.485 3.18 3.18 0 0 1-.302-.495c-.081-.164-.151-.3-.201-.436v3.577a.32.32 0 0 1-.091.262.152.152 0 0 1-.211 0l-1.41-.785a.51.51 0 0 1-.211-.252.803.803 0 0 1-.091-.359v-10.896a.352.352 0 0 1 .091-.262.173.173 0 0 1 .106-.035c.038 0 .075.012.105.035l1.359.756c.095.062.169.15.212.252a.792.792 0 0 1 .09.359v.388c.061-.078.141-.155.212-.233a.653.653 0 0 1 .291-.155.89.89 0 0 1 .423 0c.222.049.433.135.624.252.356.2.676.456.946.756.319.335.583.714.785 1.125.234.478.417.978.544 1.493.14.595.215 1.202.221 1.812v1.338a5.293 5.293 0 0 1-.221 1.561 1.995 1.995 0 0 1-.544.882 1.08 1.08 0 0 1-.785.272 2.124 2.124 0 0 1-.946-.311Zm.504-3.732a7.46 7.46 0 0 0 0-.969 3.587 3.587 0 0 0-.262-1.154 1.587 1.587 0 0 0-.745-.843.776.776 0 0 0-.423-.117.487.487 0 0 0-.302.136 1.25 1.25 0 0 0-.181.32 2.722 2.722 0 0 0-.09.436v1.154c.02.179.05.357.09.533.048.178.109.353.181.523.079.171.181.33.302.475.116.142.26.261.423.349.352.194.604.194.745 0 .164-.253.254-.544.262-.843ZM306.455 153.8a1.686 1.686 0 0 1 .096-.811c.098-.26.258-.493.467-.682a2.214 2.214 0 0 1 1.842 0l1.309.398a1.766 1.766 0 0 0-.151-.737 1.102 1.102 0 0 0-.503-.543.665.665 0 0 0-.393-.107.715.715 0 0 0-.211.078.25.25 0 0 1-.192.058.723.723 0 0 1-.211-.087l-1.419-.786a.52.52 0 0 1-.181-.203.527.527 0 0 1-.061-.301c.017-.237.093-.466.222-.669.137-.198.328-.356.553-.455.264-.106.552-.146.836-.116.375.043.736.165 1.057.358.443.241.844.549 1.187.911.331.342.609.727.826 1.144.219.416.384.855.493 1.309.101.469.151.946.151 1.425v5.022a.365.365 0 0 1-.018.139.375.375 0 0 1-.073.123.155.155 0 0 1-.211 0l-1.409-.776a.616.616 0 0 1-.212-.252.81.81 0 0 1-.08-.368v-.514a1.004 1.004 0 0 1-.665.417 1.668 1.668 0 0 1-1.006-.291 3.325 3.325 0 0 1-.856-.669 3.87 3.87 0 0 1-.624-.892 4.756 4.756 0 0 1-.392-1.047 5.167 5.167 0 0 1-.171-1.076Zm2.546 1.793a.89.89 0 0 0 .463.136.583.583 0 0 0 .363-.136.838.838 0 0 0 .251-.368 1.64 1.64 0 0 0 .091-.572l-1.007-.339a.65.65 0 0 0-.493 0 .439.439 0 0 0-.148.18.421.421 0 0 0-.033.227.933.933 0 0 0 .141.523c.094.143.221.263.372.349ZM316.168 162.806a.924.924 0 0 0 .755.136c.211-.078.322-.31.322-.698v-1.154c-.066.084-.14.162-.222.233a.562.562 0 0 1-.292.155.886.886 0 0 1-.422 0 2.132 2.132 0 0 1-.614-.252 3.976 3.976 0 0 1-.956-.747 4.982 4.982 0 0 1-.775-1.124 7.205 7.205 0 0 1-.544-1.464 7.961 7.961 0 0 1-.232-1.764v-1.173a5.173 5.173 0 0 1 .232-1.522c.101-.326.288-.62.544-.853.213-.181.491-.275.775-.262.338.03.664.132.956.3a3.623 3.623 0 0 1 1.097.96c.115.158.219.323.312.494.08.165.141.311.191.437v-.378a.357.357 0 0 1 .091-.272.186.186 0 0 1 .221 0l1.288.718a.553.553 0 0 1 .212.252.788.788 0 0 1 .09.358v8.066c.022.51-.057 1.02-.231 1.503a1.706 1.706 0 0 1-.624.833 1.447 1.447 0 0 1-1.007.165 3.69 3.69 0 0 1-1.228-.446 5.465 5.465 0 0 1-1.419-1.115 5.78 5.78 0 0 1-.865-1.26 5.082 5.082 0 0 1-.433-1.202 4.821 4.821 0 0 1-.141-.969.292.292 0 0 1 .09-.272.168.168 0 0 1 .212 0l1.449.805c.184.124.31.311.352.523.054.182.135.355.242.514.139.209.339.374.574.475Zm-1.007-6.582a2.777 2.777 0 0 0 0 .387 3.802 3.802 0 0 0 0 .427c.017.382.109.757.272 1.105.145.334.405.611.735.785.302.175.533.175.694 0a1.07 1.07 0 0 0 .292-.688c.04-.348.04-.699 0-1.047a2.828 2.828 0 0 0-.282-.969 1.7 1.7 0 0 0-.704-.757c-.322-.184-.564-.193-.725 0a1.156 1.156 0 0 0-.252.757h-.03ZM322.237 161.662a2.33 2.33 0 0 0 .09.679c.059.186.14.365.242.533.088.143.197.273.322.388.109.094.227.178.352.252.159.099.337.165.524.194a.492.492 0 0 0 .332-.097.367.367 0 0 1 .181-.088.31.31 0 0 1 .191.059l1.45.804c.083.056.15.132.192.22.043.089.06.187.049.284a1.148 1.148 0 0 1-.161.514 1.484 1.484 0 0 1-.523.533c-.27.166-.586.247-.906.233a2.747 2.747 0 0 1-1.329-.417 5.241 5.241 0 0 1-1.288-1.027 5.938 5.938 0 0 1-.956-1.416 7.769 7.769 0 0 1-.574-1.725 9.697 9.697 0 0 1-.201-1.988 6.295 6.295 0 0 1 .201-1.667c.093-.406.29-.783.574-1.096.252-.249.595-.395.956-.407.458.004.906.135 1.288.378a4.58 4.58 0 0 1 1.389 1.183 6.93 6.93 0 0 1 .936 1.571 8.09 8.09 0 0 1 .524 1.744c.106.557.159 1.122.161 1.687v.466a.345.345 0 0 1-.091.261.152.152 0 0 1-.211 0l-3.714-2.055Zm1.006-2.617c-.312-.175-.553-.175-.714 0a1.29 1.29 0 0 0-.292.766l2.013 1.124a3.485 3.485 0 0 0-.292-1.095 1.732 1.732 0 0 0-.715-.795ZM335.593 172.006a.352.352 0 0 1-.09.262.177.177 0 0 1-.212 0l-1.409-.785a.562.562 0 0 1-.211-.252.81.81 0 0 1-.091-.359v-4.198a3.373 3.373 0 0 0-.231-1.27 1.673 1.673 0 0 0-.735-.843c-.342-.184-.584-.175-.735 0a1.71 1.71 0 0 0-.231.969v4.198a.37.37 0 0 1-.018.14.364.364 0 0 1-.073.122.155.155 0 0 1-.211 0l-1.409-.776a.616.616 0 0 1-.212-.252.833.833 0 0 1-.09-.368v-7.756a.356.356 0 0 1 .09-.262.16.16 0 0 1 .106-.041c.04 0 .078.015.106.041l1.359.747c.095.062.168.15.211.252a.803.803 0 0 1 .091.359v.387c.063-.083.137-.158.221-.223a.617.617 0 0 1 .322-.145c.146-.029.297-.029.443 0 .205.054.402.136.584.242a4.06 4.06 0 0 1 1.006.766c.31.334.567.71.765 1.115.223.465.388.953.493 1.454.126.587.187 1.185.182 1.784l-.021 4.692ZM342.659 171.444v1.279a4.061 4.061 0 0 1-.241 1.348 1.995 1.995 0 0 1-.614.882 1.447 1.447 0 0 1-.946.291 2.62 2.62 0 0 1-1.238-.388 4.869 4.869 0 0 1-1.228-.969 6.446 6.446 0 0 1-.946-1.348 7.494 7.494 0 0 1-.614-1.561 6.555 6.555 0 0 1-.242-1.628v-1.27a3.667 3.667 0 0 1 .232-1.358c.117-.339.329-.641.614-.872a1.476 1.476 0 0 1 1.006-.301c.437.022.86.152 1.228.379.464.256.883.584 1.238.969.37.415.688.87.946 1.357.265.496.471 1.02.614 1.561.133.533.197 1.08.191 1.629Zm-4.026-1.067c.021.401.127.794.312 1.154.158.313.406.575.715.756.302.174.544.184.725 0a1.041 1.041 0 0 0 .302-.814 4.638 4.638 0 0 0 0-.553c.01-.19.01-.381 0-.572a2.662 2.662 0 0 0-.302-1.153 1.793 1.793 0 0 0-.725-.757.613.613 0 0 0-.715 0 1.075 1.075 0 0 0-.312.815v.552c0 .214-.05.398-.04.572h.04ZM346.333 175.06c-.005.221.032.441.111.649a.852.852 0 0 0 .372.417l.896.494c.095.062.168.15.211.252.06.115.091.241.091.369v1.667a.322.322 0 0 1-.091.262.152.152 0 0 1-.211 0l-1.067-.591a3.867 3.867 0 0 1-.956-.757 4.883 4.883 0 0 1-.725-1.047 5.78 5.78 0 0 1-.473-1.289 6.28 6.28 0 0 1-.171-1.464v-2.782l-.826-.456a.551.551 0 0 1-.211-.252.802.802 0 0 1-.091-.358v-1.677a.32.32 0 0 1 .091-.262.152.152 0 0 1 .211 0l.826.465v-2.705a.333.333 0 0 1 .09-.261.176.176 0 0 1 .212 0l1.409.785c.095.062.169.15.211.252.059.111.09.234.091.359v2.704l1.258.698a.573.573 0 0 1 .221.252.817.817 0 0 1 .081.369v1.667a.352.352 0 0 1-.081.272.186.186 0 0 1-.221 0l-1.258-.698v2.666ZM353.832 173.993l1.369.766a.594.594 0 0 1 .211.242.881.881 0 0 1 .091.369v1.677a.37.37 0 0 1-.018.14.381.381 0 0 1-.073.122.173.173 0 0 1-.106.035.172.172 0 0 1-.105-.035l-1.369-.766v5.593a.32.32 0 0 1-.091.262.152.152 0 0 1-.211 0l-1.409-.785a.507.507 0 0 1-.212-.252.789.789 0 0 1-.09-.359v-5.603l-.765-.427a.49.49 0 0 1-.242-.164.952.952 0 0 1-.08-.359v-1.677a.387.387 0 0 1 .08-.262.184.184 0 0 1 .111-.036c.04 0 .079.012.111.036l.765.436v-.446a3.75 3.75 0 0 1 .181-1.26c.091-.284.27-.534.513-.717a1.13 1.13 0 0 1 .765-.194c.357.029.702.139 1.007.32l1.056.591a.502.502 0 0 1 .212.252.834.834 0 0 1 .09.369v1.667a.35.35 0 0 1-.09.271.162.162 0 0 1-.106.038.164.164 0 0 1-.106-.038l-1.006-.562c-.181-.097-.312-.097-.383 0a.799.799 0 0 0-.1.456v.3ZM362.105 182.263V183.532a4.152 4.152 0 0 1-.251 1.358 2.018 2.018 0 0 1-.614.872 1.414 1.414 0 0 1-.936.291 2.606 2.606 0 0 1-1.238-.388 4.856 4.856 0 0 1-1.238-.969 6.364 6.364 0 0 1-.936-1.348 7.512 7.512 0 0 1-.866-3.179v-1.28c0-.462.079-.92.231-1.357.12-.341.336-.643.624-.873a1.51 1.51 0 0 1 .947-.3c.439.019.866.15 1.238.378.464.256.882.584 1.238.969.367.417.685.872.946 1.357.267.498.48 1.021.634 1.561.133.537.207 1.086.221 1.639Zm-4.026-1.077c.012.405.115.802.302 1.164.158.316.411.579.725.756a.637.637 0 0 0 .725 0 1.041 1.041 0 0 0 .302-.814v-1.125a2.698 2.698 0 0 0-.302-1.154 1.87 1.87 0 0 0-.725-.756c-.302-.165-.544-.184-.725 0a1.064 1.064 0 0 0-.302.815 4.62 4.62 0 0 0 0 .552 5.038 5.038 0 0 0-.04.562h.04ZM363.101 179.587a.37.37 0 0 1 .081-.272.167.167 0 0 1 .211 0l1.409.776a.616.616 0 0 1 .212.252.833.833 0 0 1 .09.368v4.188c-.007.429.064.856.212 1.261.126.346.376.638.704.824.332.184.564.164.705-.049.157-.32.227-.674.201-1.027v-4.188a.354.354 0 0 1 .091-.262.172.172 0 0 1 .105-.035c.039 0 .076.012.106.035l1.409.785c.095.062.169.15.212.252.059.114.09.241.09.369v7.755a.361.361 0 0 1-.09.262.16.16 0 0 1-.106.041.156.156 0 0 1-.106-.041l-1.298-.718a.553.553 0 0 1-.212-.252.788.788 0 0 1-.09-.358v-.388c-.063.09-.137.171-.222.242a.748.748 0 0 1-.312.136 1.173 1.173 0 0 1-.442 0 1.967 1.967 0 0 1-.594-.233 4.334 4.334 0 0 1-1.731-1.871 7.222 7.222 0 0 1-.635-3.228v-4.624ZM376.187 194.574a.324.324 0 0 1-.091.262.151.151 0 0 1-.106.041.15.15 0 0 1-.105-.041l-1.409-.785a.51.51 0 0 1-.212-.252.792.792 0 0 1-.09-.359v-4.188a3.422 3.422 0 0 0-.232-1.28 1.692 1.692 0 0 0-.735-.833c-.342-.194-.584-.185-.734 0a1.732 1.732 0 0 0-.232 1.018v4.187a.335.335 0 0 1-.015.141.335.335 0 0 1-.076.121.152.152 0 0 1-.211 0l-1.409-.785a.555.555 0 0 1-.211-.252.778.778 0 0 1-.091-.359v-7.755a.357.357 0 0 1 .091-.272.165.165 0 0 1 .211 0l1.359.747a.621.621 0 0 1 .211.252c.059.115.09.24.091.368v.378a.995.995 0 0 1 .221-.223.81.81 0 0 1 .322-.145c.146-.028.297-.028.443 0 .207.045.404.124.584.233.375.202.715.461 1.006.765.308.336.565.711.765 1.115.223.465.389.953.494 1.454.125.587.186 1.185.181 1.784l-.02 4.663ZM379.699 188.205c.213.109.407.249.574.417a3.796 3.796 0 0 1 .724.969c.081.165.151.311.202.437v-3.529a.352.352 0 0 1 .09-.262.177.177 0 0 1 .212 0l1.409.785c.095.062.168.15.211.252.06.115.091.241.091.369V198.5a.32.32 0 0 1-.091.262.152.152 0 0 1-.211 0l-1.359-.756a.526.526 0 0 1-.211-.242.852.852 0 0 1-.091-.369v-.378c-.065.082-.135.16-.211.233a.763.763 0 0 1-.292.155.89.89 0 0 1-.423 0 2.175 2.175 0 0 1-.624-.252 4.114 4.114 0 0 1-.946-.747 4.82 4.82 0 0 1-.785-1.134 7.17 7.17 0 0 1-.544-1.483 8.458 8.458 0 0 1-.221-1.813v-1.347a5.36 5.36 0 0 1 .221-1.561c.101-.334.288-.637.544-.882a1.092 1.092 0 0 1 .785-.272c.335.02.661.12.946.291Zm-.503 3.723a7.122 7.122 0 0 0 0 .969c.025.395.113.784.261 1.154.138.356.402.655.745.843a.737.737 0 0 0 .423.126.49.49 0 0 0 .302-.145.843.843 0 0 0 .181-.32c.043-.14.073-.282.091-.427V192.965c0-.175-.051-.349-.091-.533a2.73 2.73 0 0 0-.181-.524 2.107 2.107 0 0 0-.302-.465 1.494 1.494 0 0 0-.423-.359c-.352-.194-.594-.184-.745 0a1.664 1.664 0 0 0-.261.844Z" fill="#FAFAFA"/></svg>