<svg width="24" height="24" fill="none" xmlns="http://www.w3.org/2000/svg"><path d="M23.063 10.05C22.163 4.762 17.55.75 12 .75 6.45.75 1.838 4.763.937 10.05L12 4.5l11.063 5.55ZM.938 13.95c.9 5.288 5.512 9.3 11.062 9.3s10.163-4.012 11.063-9.3L12 19.5.937 13.95Z" fill="#009B3A"/><path d="M12 4.5.937 10.05A11.089 11.089 0 0 0 .75 12c0 .675.075 1.313.188 1.95L12 19.5l11.063-5.55c.112-.637.187-1.275.187-1.95s-.075-1.313-.188-1.95L12 4.5Z" fill="#FEDF01"/><path d="M9.75 10.65c-1.2 0-2.325.262-3.338.713-.037.225-.037.412-.037.637A5.617 5.617 0 0 0 12 17.625c2.1 0 3.938-1.163 4.913-2.85-1.388-2.438-4.088-4.125-7.163-4.125Z" fill="#002776"/><path d="M17.55 12.9c.037-.3.075-.6.075-.9A5.617 5.617 0 0 0 12 6.375c-2.213 0-4.125 1.275-5.063 3.15A9.904 9.904 0 0 1 17.55 12.9Z" fill="#002776"/><path d="M9.75 9.112c-.975 0-1.913.15-2.813.413a5.801 5.801 0 0 0-.525 1.838 8.188 8.188 0 0 1 3.338-.713c3.075 0 5.775 1.65 7.163 4.088.337-.563.524-1.2.637-1.838a9.904 9.904 0 0 0-7.8-3.788Z" fill="#CBE9D4"/><path d="M8.25 12.375a.375.375 0 1 0 0-.75.375.375 0 0 0 0 .75ZM9.75 14.625a.375.375 0 1 0 0-.75.375.375 0 0 0 0 .75ZM12 14.625a.375.375 0 1 0 0-.75.375.375 0 0 0 0 .75ZM12 16.125a.375.375 0 1 0 0-.75.375.375 0 0 0 0 .75ZM15 14.625a.375.375 0 1 0 0-.75.375.375 0 0 0 0 .75ZM15 16.125a.375.375 0 1 0 0-.75.375.375 0 0 0 0 .75ZM13.5 15.375a.375.375 0 1 0 0-.75.375.375 0 0 0 0 .75ZM8.25 13.875a.375.375 0 1 0 0-.75.375.375 0 0 0 0 .75Z" fill="#55ACEE"/></svg>