<svg width="33" height="32" fill="none" xmlns="http://www.w3.org/2000/svg"><circle cx="16.5" cy="16" r="16" fill="#2D333B"/><circle cx="16.5" cy="16" r="16" fill="url(#a)"/><path d="M20.811 5.333h-8.623a6.362 6.362 0 0 0-6.355 6.356v8.622a6.362 6.362 0 0 0 6.355 6.356h8.623a6.362 6.362 0 0 0 6.355-6.356V11.69a6.363 6.363 0 0 0-6.355-6.356Zm4.21 14.978a4.21 4.21 0 0 1-4.21 4.21h-8.623a4.21 4.21 0 0 1-4.209-4.21V11.69a4.21 4.21 0 0 1 4.21-4.21h8.622a4.21 4.21 0 0 1 4.21 4.21v8.622Z" fill="#fff"/><path d="M16.5 10.482A5.524 5.524 0 0 0 10.982 16a5.524 5.524 0 0 0 5.518 5.517A5.524 5.524 0 0 0 22.017 16a5.524 5.524 0 0 0-5.517-5.518Zm0 8.89a3.371 3.371 0 1 1 0-6.743 3.371 3.371 0 0 1 0 6.742ZM22.028 11.846a1.322 1.322 0 1 0 0-2.644 1.322 1.322 0 0 0 0 2.644Z" fill="#fff"/><defs><linearGradient id="a" x1="16.5" y1="31.907" x2="16.5" y2=".249" gradientUnits="userSpaceOnUse"><stop stop-color="#E09B3D"/><stop offset=".3" stop-color="#C74C4D"/><stop offset=".6" stop-color="#C21975"/><stop offset="1" stop-color="#7024C4"/></linearGradient></defs></svg>