<svg width="32" height="32" fill="none" xmlns="http://www.w3.org/2000/svg"><path d="M0 16C0 7.163 7.163 0 16 0s16 7.163 16 16-7.163 16-16 16S0 24.837 0 16Z" fill="#0077B5"/><path fill-rule="evenodd" clip-rule="evenodd" d="M11.546 9.882c0 1.046-.787 1.883-2.052 1.883h-.023c-1.217 0-2.004-.837-2.004-1.883C7.467 8.814 8.277 8 9.518 8c1.24 0 2.004.814 2.028 1.882Zm-.239 3.37v10.894H7.681V13.252h3.626Zm13.077 10.894V17.9c0-3.346-1.79-4.904-4.175-4.904-1.925 0-2.787 1.057-3.268 1.8v-1.544h-3.627c.048 1.022 0 10.895 0 10.895h3.627v-6.085c0-.325.023-.65.119-.883.262-.65.859-1.324 1.86-1.324 1.313 0 1.838.999 1.838 2.463v5.828h3.626Z" fill="#fff"/></svg>