<svg width="33" height="32" fill="none" xmlns="http://www.w3.org/2000/svg"><path d="M.5 16c0-8.837 7.163-16 16-16s16 7.163 16 16-7.163 16-16 16-16-7.163-16-16Z" fill="#2F80ED"/><path d="M19.167 10.667v3.927l1.28.865c.035.01.108.01.141 0l5.512-3.983c0-.472-.41-.81-.641-.81h-6.292Z" fill="#fff"/><path d="m19.168 15.676 1.168.826c.165.125.363 0 .363 0-.197.125 5.401-3.702 5.401-3.702v6.93c0 .754-.469 1.07-.997 1.07h-5.936v-5.124ZM13.061 13.867c-.416 0-.748.196-.993.587-.245.392-.368.91-.368 1.556 0 .654.123 1.172.368 1.553.245.38.566.57.964.57.41 0 .735-.185.974-.555.24-.37.36-.884.36-1.541 0-.685-.115-1.218-.349-1.6-.233-.38-.551-.57-.956-.57Z" fill="#fff"/><path fill-rule="evenodd" clip-rule="evenodd" d="M7.434 23.256V8.563l11.2-2.163v19.2l-11.2-2.344Zm5.642-3.93c.762 0 1.379-.31 1.852-.932.473-.622.71-1.441.71-2.457 0-.989-.229-1.785-.685-2.39-.456-.604-1.054-.905-1.794-.905-.782 0-1.41.316-1.886.947-.474.63-.711 1.457-.711 2.48 0 .967.234 1.752.7 2.354.468.603 1.072.904 1.814.904Z" fill="#fff"/></svg>