<svg width="24" height="24" fill="none" xmlns="http://www.w3.org/2000/svg"><path d="M18 2.475C16.238 1.387 14.213.75 12 .75v1.725h6Z" fill="#ED4C5C"/><path d="M12 4.2h8.1A13.178 13.178 0 0 0 18 2.475h-6V4.2Z" fill="#fff"/><path d="M12 5.925h9.488c-.413-.637-.863-1.2-1.35-1.725H12v1.725Z" fill="#ED4C5C"/><path d="M12 7.65h10.387c-.262-.6-.562-1.2-.9-1.725H12V7.65Z" fill="#fff"/><path d="M12 9.375h10.95c-.15-.6-.337-1.163-.563-1.725H12v1.725Z" fill="#ED4C5C"/><path d="M12 11.137h11.212c-.037-.6-.15-1.162-.262-1.724H12v1.724Z" fill="#fff"/><path d="M23.212 11.137H12V12H.75c0 .3 0 .563.037.863h22.425c.038-.3.038-.563.038-.863 0-.3 0-.6-.038-.863Z" fill="#ED4C5C"/><path d="M1.05 14.588h21.9c.15-.563.225-1.125.262-1.725H.787c.038.562.113 1.162.263 1.725Z" fill="#fff"/><path d="M1.613 16.313h20.775c.225-.563.412-1.125.562-1.725H1.05c.15.6.338 1.162.563 1.725Z" fill="#ED4C5C"/><path d="M2.513 18.038h18.975c.337-.563.637-1.125.9-1.726H1.613c.262.6.562 1.163.9 1.726Z" fill="#fff"/><path d="M3.862 19.762h16.275c.488-.524.975-1.125 1.35-1.724H2.512c.375.637.863 1.2 1.35 1.724Z" fill="#ED4C5C"/><path d="M5.963 21.488h12.075c.787-.488 1.462-1.088 2.1-1.726H3.863c.637.675 1.35 1.238 2.1 1.726Z" fill="#fff"/><path d="M12 23.25c2.213 0 4.275-.637 6.038-1.762H5.963A11.157 11.157 0 0 0 12 23.25Z" fill="#ED4C5C"/><path d="M6 2.475c-.787.487-1.5 1.087-2.138 1.725a9.761 9.761 0 0 0-1.35 1.725c-.337.563-.675 1.125-.9 1.725a13.247 13.247 0 0 0-.562 1.725A8.705 8.705 0 0 0 .787 11.1c-.037.3-.037.6-.037.9H12V.75c-2.213 0-4.237.637-6 1.725Z" fill="#428BC1"/><path d="m9.375 1.125.188.563h.562l-.45.375.15.562-.45-.337-.45.337.15-.563-.45-.374h.563l.187-.563Zm1.5 2.25.188.563h.562l-.45.374.15.563-.45-.338-.45.338.15-.563-.45-.375h.563l.187-.562Zm-3 0 .188.563h.562l-.45.374.15.563-.45-.338-.45.338.15-.563-.45-.375h.563l.187-.562Zm1.5 2.25.188.563h.562l-.45.375.15.562-.45-.338-.45.338.15-.563-.45-.375h.563l.187-.562Zm-3 0 .188.563h.562l-.45.375.15.562-.45-.338-.45.338.15-.563-.45-.375h.563l.187-.562Zm-3 0 .188.563h.562l-.45.375.15.562-.45-.338-.45.338.15-.563-.45-.375h.563l.187-.562Zm7.5 2.25.188.563h.562l-.45.374.15.563-.45-.338-.45.338.15-.563-.45-.374h.563l.187-.563Zm-3 0 .188.563h.562l-.45.374.15.563-.45-.338-.45.338.15-.563-.45-.374h.563l.187-.563Zm-3 0 .188.563h.562l-.45.374.15.563-.45-.338-.45.338.15-.563-.45-.374h.563l.187-.563Zm4.5 2.25.188.563h.562l-.45.374.15.563-.45-.338-.45.338.15-.563-.45-.374h.563l.187-.563Zm-3 0 .188.563h.562l-.45.374.15.563-.45-.338-.45.338.15-.563-.45-.374h.563l.187-.563Zm-3 0 .188.563h.562l-.45.374.15.563-.45-.338-.45.338.15-.563-.45-.374h.563l.187-.563Zm1.05-5.25.45-.338.45.338-.187-.563.45-.375h-.563l-.15-.562-.187.563h-.525l.45.337-.188.6Zm-3 4.5.45-.338.45.338-.187-.563.45-.374h-.525l-.188-.563-.187.563h-.375c0 .037-.038.074-.038.112l.3.225-.15.6Z" fill="#fff"/></svg>