<svg width="32" height="32" fill="none" xmlns="http://www.w3.org/2000/svg"><path d="M16 32c8.837 0 16-7.163 16-16S24.837 0 16 0 0 7.163 0 16s7.163 16 16 16Z" fill="#25D366"/><path fill-rule="evenodd" clip-rule="evenodd" d="M16.528 24.902h-.004c-1.593 0-3.157-.4-4.547-1.158l-5.043 1.323 1.35-4.93a9.497 9.497 0 0 1-1.27-4.757c.001-5.246 4.27-9.513 9.514-9.513a9.452 9.452 0 0 1 6.73 2.79 9.456 9.456 0 0 1 2.784 6.73c-.002 5.245-4.269 9.512-9.514 9.515Zm-4.317-2.88.289.17a7.896 7.896 0 0 0 4.024 1.103h.004c4.358 0 7.905-3.548 7.907-7.908.001-2.113-.82-4.1-2.314-5.594a7.854 7.854 0 0 0-5.59-2.32c-4.362 0-7.91 3.548-7.911 7.908 0 1.494.417 2.95 1.209 4.208l.188.3-.8 2.917 2.994-.785Zm8.784-4.586c.166.08.278.134.326.214.06.1.06.575-.139 1.13-.198.556-1.148 1.063-1.604 1.13a3.26 3.26 0 0 1-1.498-.093c-.345-.11-.788-.256-1.355-.501-2.229-.962-3.735-3.122-4.02-3.53a3.186 3.186 0 0 0-.041-.06l-.002-.002c-.126-.168-.969-1.293-.969-2.457 0-1.095.538-1.669.786-1.933l.046-.05a.873.873 0 0 1 .634-.298c.159 0 .317.002.456.009h.053c.139 0 .311-.001.482.408l.262.637c.205.498.43 1.049.47 1.128.06.12.1.258.02.417l-.033.067c-.06.122-.103.211-.204.33-.04.046-.081.096-.122.146-.082.1-.164.199-.235.27-.119.118-.243.247-.104.485s.616 1.016 1.322 1.647c.76.677 1.42.964 1.755 1.109.065.028.118.051.157.07.238.12.377.1.515-.059.139-.159.594-.694.753-.932.158-.238.317-.198.535-.12.218.08 1.387.655 1.624.774l.13.064Z" fill="#FDFDFD"/></svg>